<?xml version="1.0" standalone="no"?>
<!DOCTYPE svg PUBLIC "-//W3C//DTD SVG 20010904//EN"
 "http://www.w3.org/TR/2001/REC-SVG-20010904/DTD/svg10.dtd">
<svg version="1.0" xmlns="http://www.w3.org/2000/svg"
 width="550.000000pt" height="467.000000pt" viewBox="0 0 550.000000 467.000000"
 preserveAspectRatio="xMidYMid meet">

<g transform="translate(0.000000,467.000000) scale(0.100000,-0.100000)"
fill="#000000" stroke="none">
<path d="M3423 4648 c-86 -14 -172 -98 -207 -201 -9 -26 -20 -84 -25 -130 -5
-45 -14 -102 -20 -127 -5 -25 -9 -126 -9 -225 0 -175 15 -305 50 -427 14 -46
3 -60 -86 -115 l-61 -37 -125 -1 c-167 -1 -224 -26 -271 -117 -11 -21 -24 -38
-29 -38 -22 0 -80 -63 -86 -95 -6 -32 -7 -33 -37 -24 -17 5 -35 13 -41 19 -5
5 -21 10 -35 10 -14 0 -50 6 -80 14 -112 28 -249 48 -361 53 -63 2 -122 7
-130 11 -8 3 -46 7 -85 8 -38 1 -81 3 -95 4 -14 1 -79 -3 -145 -9 -87 -9 -134
-18 -170 -35 -27 -13 -75 -35 -105 -50 -72 -33 -212 -157 -225 -200 -5 -17
-31 -59 -58 -93 -62 -81 -119 -188 -158 -298 -48 -137 -75 -183 -157 -267
l-75 -78 -78 0 c-94 0 -175 16 -183 36 -4 11 -11 12 -23 6 -10 -5 -46 -12 -81
-15 -34 -4 -80 -16 -101 -26 -55 -29 -117 -106 -125 -159 -6 -42 -6 -42 71
-121 166 -167 376 -266 655 -307 l113 -16 67 71 c36 39 73 71 82 71 17 0 36
29 36 55 0 9 14 28 30 42 18 14 30 34 30 48 0 15 23 50 61 92 75 84 157 192
194 257 16 28 51 74 78 103 28 29 63 71 79 93 16 22 38 40 48 40 9 0 23 7 30
15 15 18 63 20 88 4 13 -8 27 -7 55 4 36 15 39 15 129 -23 51 -21 115 -44 142
-51 27 -7 71 -28 97 -48 47 -34 47 -35 33 -63 -8 -15 -18 -28 -23 -28 -20 0
-123 -120 -155 -180 -19 -36 -56 -92 -81 -125 -55 -70 -85 -128 -150 -285 -26
-63 -51 -118 -56 -121 -14 -8 -45 -95 -59 -164 -7 -33 -36 -107 -64 -165 -29
-58 -59 -121 -66 -140 -7 -19 -19 -42 -27 -51 -7 -8 -16 -31 -20 -50 -3 -19
-15 -40 -25 -47 -10 -7 -18 -19 -18 -26 0 -8 -7 -20 -17 -27 -9 -8 -41 -50
-72 -94 -31 -44 -103 -130 -161 -190 -136 -143 -165 -198 -165 -311 0 -70 4
-88 30 -139 19 -37 46 -72 73 -92 90 -69 228 -81 327 -30 83 42 217 193 418
470 44 59 84 107 90 107 27 0 237 264 237 297 0 7 13 26 30 43 17 17 30 37 30
45 0 8 15 40 34 72 19 32 42 83 52 113 14 44 30 66 76 108 32 30 70 75 85 100
14 26 44 73 65 106 21 32 41 69 44 82 5 20 71 74 91 74 4 0 16 9 27 19 12 10
61 36 109 56 63 27 100 51 133 84 l46 46 111 2 c62 2 123 3 137 3 14 0 58 -2
98 -6 l73 -6 42 45 42 44 90 1 c114 0 166 19 206 76 16 23 42 48 57 57 15 9
29 24 31 34 2 10 15 28 30 39 14 11 67 59 118 106 168 155 150 146 293 156
141 9 213 9 415 -1 127 -6 151 -5 264 18 160 33 263 81 354 167 103 96 169
247 153 352 -15 101 -141 257 -286 353 -41 27 -100 73 -130 101 -30 28 -61 53
-68 55 -11 4 -9 20 10 79 33 107 33 283 0 390 -39 123 -88 207 -172 291 -120
121 -272 183 -445 181 -106 0 -176 -22 -273 -82 -35 -22 -69 -40 -76 -40 -13
0 -58 41 -228 206 -138 135 -257 184 -385 162z m202 -76 c55 -26 89 -53 162
-127 85 -87 110 -117 83 -100 -6 4 -31 -1 -56 -11 -62 -23 -75 -13 -95 72
l-17 69 -1 -47 c0 -27 -5 -48 -10 -48 -5 0 -36 25 -70 55 -57 51 -118 91 -126
83 -2 -2 13 -24 34 -48 21 -25 46 -60 56 -79 l17 -34 -24 7 c-12 4 -57 9 -98
12 -85 7 -141 -11 -213 -68 l-40 -32 7 50 c19 136 65 218 146 262 64 34 150
28 245 -16z m953 -242 c38 -14 62 -27 62 -37 0 -8 15 -33 34 -56 76 -94 128
-223 125 -312 -1 -39 -2 -39 -9 11 -24 167 -130 317 -267 382 -50 23 -70 27
-148 26 -74 0 -102 -5 -156 -28 -171 -70 -381 -323 -381 -459 0 -57 1 -59 67
-102 29 -20 75 -61 101 -93 l48 -57 -54 51 c-31 28 -79 68 -109 89 -31 23 -59
52 -67 72 -13 29 -12 38 10 96 34 90 57 134 111 204 66 89 200 186 310 226 70
25 234 18 323 -13z m-623 -45 c37 -33 39 -36 21 -48 -10 -7 -39 -28 -65 -47
-25 -19 -40 -27 -33 -18 11 14 11 21 -3 42 -19 29 -14 91 8 99 23 10 32 6 72
-28z m-341 1 c40 -25 76 -112 83 -196 l6 -70 -48 21 c-33 15 -70 22 -119 22
-63 1 -81 -3 -154 -37 -45 -22 -84 -37 -87 -34 -3 3 -11 30 -17 61 -11 51 -10
61 9 100 31 64 68 103 126 132 43 22 62 26 113 23 37 -2 72 -11 88 -22z m904
-20 c47 -24 79 -52 71 -61 -3 -2 -28 3 -57 11 -52 16 -144 15 -206 -1 -24 -7
-32 -4 -47 16 -10 13 -19 32 -19 41 0 44 168 40 258 -6z m295 -86 c110 -116
170 -271 171 -440 0 -117 -19 -194 -78 -315 -40 -80 -141 -213 -153 -201 -2 2
18 33 46 67 64 79 135 222 157 314 19 84 14 248 -9 310 -13 32 -16 35 -16 16
-1 -36 -36 -103 -71 -136 l-30 -29 0 82 c0 44 -5 105 -11 134 -16 73 -67 181
-123 257 l-47 63 51 -28 c28 -15 79 -57 113 -94z m-983 96 c0 -2 -8 -10 -17
-17 -16 -13 -17 -12 -4 4 13 16 21 21 21 13z m-607 -138 c-6 -97 -23 -147 -23
-67 0 42 19 159 26 159 1 0 0 -42 -3 -92z m967 44 c0 -19 -12 -39 -36 -63 -52
-50 -120 -148 -153 -221 -37 -80 -52 -95 -76 -72 -25 25 -14 69 44 188 50 102
119 188 164 205 32 12 57 -4 57 -37z m-201 2 c-26 -27 -35 -31 -37 -19 -4 17
35 54 57 55 9 0 1 -14 -20 -36z m-297 -194 c16 -12 28 -34 32 -59 3 -22 9 -47
13 -57 5 -14 2 -16 -20 -10 -32 8 -79 -2 -75 -16 2 -6 23 -11 47 -12 56 -3 84
-33 49 -53 -13 -7 -37 -10 -54 -7 -37 7 -186 -22 -226 -42 -45 -23 -34 2 28
63 55 55 55 55 24 51 -17 -3 -33 -1 -37 4 -3 6 -18 -3 -34 -18 -48 -46 -37 0
11 49 l40 40 -35 -6 c-19 -3 -49 -16 -66 -27 -51 -37 -43 -15 13 34 64 56 134
85 209 85 41 1 63 -4 81 -19z m-477 -127 c-10 -42 -18 -18 -9 29 6 32 9 37 12
19 2 -12 1 -34 -3 -48z m1582 -80 c-3 -10 -5 -4 -5 12 0 17 2 24 5 18 2 -7 2
-21 0 -30z m-986 15 c1 -7 1 -16 0 -20 0 -4 16 -16 37 -27 87 -44 221 -182
293 -300 33 -55 13 -33 -62 67 -71 95 -144 172 -164 172 -5 0 14 -24 43 -53
60 -60 73 -101 15 -45 -61 57 -134 109 -190 134 -58 26 -65 40 -29 54 13 5 27
14 31 19 9 15 25 14 26 -1z m-98 -64 l32 -17 -48 -14 c-27 -8 -47 -19 -47 -28
0 -12 5 -12 35 1 19 7 47 14 63 14 37 0 137 -73 188 -137 63 -79 62 -81 -9
-16 -90 83 -176 148 -185 139 -4 -4 11 -22 33 -39 56 -43 117 -109 138 -148
l19 -34 -29 32 c-47 52 -134 124 -143 118 -5 -3 28 -42 73 -86 l82 -80 -78 63
c-43 35 -94 76 -112 92 -19 16 -38 27 -41 23 -4 -3 34 -46 83 -94 78 -76 181
-209 200 -259 12 -31 -58 15 -148 98 -76 69 -109 91 -109 72 0 -3 21 -26 48
-51 45 -43 45 -44 7 -16 -22 16 -56 39 -75 51 -20 11 -46 32 -59 46 -26 28
-63 33 -97 13 -39 -23 -166 -142 -180 -170 -12 -23 -18 -26 -34 -17 -24 13
-100 13 -100 0 0 -5 6 -10 14 -10 8 0 19 -14 25 -32 13 -37 7 -49 -9 -18 -7
12 -18 19 -26 16 -7 -3 -13 0 -11 7 1 6 -30 27 -70 47 -40 19 -72 38 -73 42 0
15 59 18 98 4 25 -9 44 -11 47 -5 6 8 -34 29 -56 29 -5 0 -9 5 -9 11 0 8 31
10 106 7 91 -4 104 -3 89 9 -11 8 -45 13 -84 13 l-65 0 35 36 c33 34 36 36 87
30 29 -4 58 -7 64 -9 12 -2 14 4 17 38 1 19 61 49 129 65 28 6 52 14 52 15 0
2 -4 15 -10 29 -8 23 -15 26 -57 26 l-48 1 48 44 c69 64 138 80 200 49z m211
-117 c29 -28 36 -38 16 -22 -19 15 -56 42 -82 62 -27 19 -48 37 -48 40 0 11
68 -36 114 -80z m147 -34 c13 -16 12 -17 -3 -4 -17 13 -22 21 -14 21 2 0 10
-8 17 -17z m-364 -202 c55 -54 112 -114 128 -135 l27 -36 -47 -55 c-51 -60
-148 -134 -209 -159 -22 -9 -40 -15 -41 -14 -107 147 -135 188 -135 196 0 6
22 29 49 52 72 60 74 82 14 154 -27 32 -22 45 32 78 56 34 73 26 182 -81z
m583 -26 c19 -10 60 -21 90 -25 l55 -7 -45 -2 c-93 -2 -159 32 -218 114 l-36
50 60 -56 c33 -31 75 -64 94 -74z m-801 -7 c18 -24 30 -49 29 -58 -2 -8 -28
-28 -58 -45 -36 -20 -56 -38 -58 -52 -3 -18 50 -100 154 -242 2 -1 38 14 81
34 59 29 97 57 155 115 80 80 88 81 88 16 0 -27 -12 -44 -73 -103 -76 -74
-159 -133 -188 -133 -9 0 -31 17 -48 38 -17 20 -30 33 -31 27 0 -5 14 -25 31
-43 27 -29 37 -33 63 -28 17 4 40 8 52 10 49 9 194 111 194 137 0 18 -21 8
-63 -29 -73 -65 -84 -68 -19 -4 l62 62 40 -16 c22 -9 40 -20 40 -24 0 -4 -17
-43 -37 -86 -37 -77 -38 -82 -37 -189 0 -60 5 -127 12 -149 l11 -38 -21 18
c-32 30 -106 137 -126 185 l-19 44 -7 -44 c-4 -24 -4 -65 -1 -90 l6 -46 -20
35 c-14 26 -18 46 -14 76 3 25 1 44 -6 48 -7 5 -11 -4 -11 -26 l-1 -33 -19 40
c-28 55 -64 85 -105 85 -25 0 -39 7 -55 28 l-22 27 38 33 c20 17 35 34 33 36
-6 6 -88 -57 -89 -67 0 -4 12 -19 26 -34 14 -14 24 -26 22 -27 -2 -1 -15 -9
-29 -18 -14 -9 -35 -35 -46 -58 l-19 -42 -54 66 c-32 39 -56 62 -60 55 -11
-17 -50 40 -50 73 0 17 9 41 20 55 28 35 27 57 -1 42 -35 -18 -42 4 -10 35
l28 27 13 -31 c12 -30 94 -110 112 -110 5 0 -1 15 -13 33 l-23 32 22 -19 c38
-33 33 -13 -14 54 -31 46 -47 82 -55 123 -6 33 -8 61 -6 63 12 13 43 -18 109
-108 40 -55 81 -110 91 -122 25 -29 -14 31 -89 134 -83 116 -86 123 -73 157
10 27 86 113 100 113 4 0 21 -19 38 -42z m1195 -12 c-3 -8 -13 -12 -24 -9 -37
10 -107 -49 -101 -84 1 -8 -9 -13 -24 -13 -14 0 -25 5 -25 11 0 23 42 68 82
88 50 25 100 28 92 7z m-1805 -20 c-8 -16 -26 -28 -54 -36 -24 -7 -56 -25 -71
-41 -55 -58 -76 -20 -23 44 31 38 69 54 126 56 31 1 32 0 22 -23z m178 9 c45
-13 53 -20 67 -55 22 -56 20 -63 -14 -45 -16 8 -63 20 -105 27 -63 10 -75 15
-75 30 0 58 36 70 127 43z m2101 -50 c45 -31 82 -57 82 -59 0 -3 -15 -4 -32
-4 -18 0 -73 -4 -123 -9 -49 -6 -92 -8 -94 -7 -7 6 -14 103 -8 119 5 10 20 15
49 15 36 0 58 -10 126 -55z m-518 -15 c-14 -11 -29 -20 -35 -20 -5 0 4 9 20
20 38 25 48 25 15 0z m-1473 -77 c-2 -16 -4 -5 -4 22 0 28 2 40 4 28 2 -13 2
-35 0 -50z m-464 5 c-4 -7 -10 -31 -14 -53 -6 -34 -8 -37 -14 -18 -4 13 -11
20 -16 17 -5 -3 -9 0 -9 5 0 23 -20 9 -40 -26 l-21 -38 6 34 c8 52 48 89 98
90 12 1 16 -3 10 -11z m1224 -4 c5 -16 -29 -27 -38 -12 -4 6 -5 16 -2 21 7 11
35 5 40 -9z m-1052 -22 c51 -16 60 -23 63 -46 4 -31 -18 -35 -65 -11 -17 8
-58 18 -92 21 -67 7 -76 13 -66 45 6 19 12 21 54 16 25 -3 73 -15 106 -25z
m2452 -29 c69 -79 108 -158 106 -223 -1 -59 -28 -139 -68 -198 -29 -43 -29
-42 -10 22 8 27 15 72 15 99 0 46 -4 53 -48 97 -59 60 -133 85 -228 77 -118
-9 -167 -67 -187 -220 l-10 -81 -15 39 c-9 25 -15 78 -15 143 0 87 -2 101 -14
89 -31 -30 -35 -222 -7 -333 8 -29 -5 -31 -39 -4 -33 26 -47 75 -47 170 0 83
-14 81 -26 -5 -8 -63 -20 -95 -35 -95 -16 0 -5 168 15 234 19 61 73 121 93
104 11 -8 44 -8 136 1 67 7 131 9 142 6 12 -4 5 7 -20 29 l-40 36 25 20 c41
33 109 50 175 45 57 -4 62 -7 102 -52z m-3667 11 c15 -45 6 -153 -17 -198 -19
-38 -63 -86 -78 -86 -6 0 -27 16 -46 36 -18 20 -43 40 -53 46 -18 10 -18 9 1
-18 26 -37 46 -100 39 -120 -12 -32 -50 -11 -83 46 -18 30 -37 62 -42 70 -5 8
-1 -16 10 -54 10 -38 16 -72 14 -75 -10 -9 -53 42 -83 97 -17 31 -31 48 -34
40 -4 -11 7 -75 28 -155 6 -21 3 -23 -28 -23 -56 0 -139 30 -170 60 l-28 28 0
-26 c1 -32 12 -48 63 -86 29 -23 35 -31 26 -42 -6 -8 -19 -14 -28 -14 -39 0
-112 34 -138 63 l-26 32 7 -35 c21 -109 164 -146 314 -81 72 32 92 37 92 23 0
-17 -182 -76 -230 -75 -66 1 -135 36 -171 86 -16 22 -29 36 -29 30 0 -5 13
-28 29 -51 39 -52 153 -111 234 -119 31 -3 57 -10 57 -15 0 -6 -15 -25 -34
-44 -55 -55 -108 -41 -210 54 l-39 37 6 -37 c3 -20 19 -68 36 -106 36 -83 39
-130 10 -183 -55 -97 -176 -135 -274 -85 -27 14 -50 24 -51 23 -2 -1 29 -38
68 -82 81 -93 98 -118 71 -108 -44 15 -157 87 -190 121 -21 20 -41 36 -45 35
-13 -5 -9 11 8 35 13 19 22 22 45 17 33 -7 36 -3 12 16 -14 12 -16 12 -8 0 6
-10 4 -12 -4 -6 -10 6 -8 12 7 27 16 16 23 18 41 9 11 -7 21 -8 21 -2 0 5 -7
12 -17 15 -14 6 -13 10 9 34 34 36 83 134 128 259 40 109 109 229 167 291 19
20 49 61 65 89 35 61 103 125 170 159 53 27 69 30 64 12 -1 -7 -1 -10 2 -5 7
13 60 37 81 37 11 0 24 6 28 14 9 16 42 22 130 25 l61 1 12 -36z m61 -48 c26
-97 -21 -262 -90 -318 -82 -66 -121 -93 -121 -85 0 5 64 75 116 127 40 41 74
135 74 206 0 25 -9 70 -20 101 l-20 56 25 -23 c14 -13 30 -42 36 -64z m136 36
c30 -40 33 -50 33 -115 0 -72 -24 -179 -55 -247 -16 -35 -16 -35 -9 37 5 63
-3 249 -11 241 -2 -2 -8 -39 -14 -82 -12 -84 -44 -167 -87 -224 -32 -41 -40
-36 -19 13 23 56 55 225 55 289 0 31 -7 73 -15 93 -8 19 -15 37 -15 40 0 2 23
3 52 1 48 -3 55 -6 85 -46z m1360 16 c-3 -7 -5 -2 -5 12 0 14 2 19 5 13 2 -7
2 -19 0 -25z m-1012 -7 c149 -24 165 -30 196 -75 l24 -36 6 28 5 27 39 -40
c31 -32 37 -36 33 -17 -7 27 -7 27 44 1 68 -35 135 -106 223 -238 46 -70 113
-161 148 -204 75 -88 103 -149 94 -204 -4 -20 -11 -41 -16 -46 -21 -21 -282
164 -380 268 -84 91 -90 105 -96 236 -2 62 -7 114 -10 117 -3 3 -6 -3 -6 -14
-1 -11 -4 -7 -8 11 -6 26 -9 20 -20 -44 -9 -49 -16 -69 -22 -60 -5 8 -9 22 -9
31 0 24 -50 147 -62 154 -6 4 -7 -2 -3 -17 12 -38 7 -170 -9 -219 -13 -42 -15
-43 -22 -21 -11 37 -109 233 -128 256 -9 11 -3 -9 14 -44 39 -85 53 -160 48
-243 -6 -78 -28 -121 -61 -116 -16 2 -28 19 -47 70 -15 37 -29 70 -31 73 -3 3
-11 -13 -18 -35 -18 -61 -74 -79 -123 -40 -19 14 -27 32 -31 72 -12 96 -69
332 -89 366 l-20 33 108 -5 c60 -3 163 -14 229 -25z m1042 -3 c-3 -7 -5 -2 -5
12 0 14 2 19 5 13 2 -7 2 -19 0 -25z m878 -9 c-53 -49 -106 -151 -135 -259
-20 -77 -20 -77 -1 80 5 36 19 88 32 115 20 41 33 55 78 78 74 37 78 34 26
-14z m237 26 c160 -22 154 -19 120 -63 -39 -50 -56 -83 -97 -198 -19 -54 -38
-101 -43 -106 -19 -19 -107 -26 -165 -13 -33 8 -62 17 -65 20 -14 14 -3 132
16 195 12 35 19 66 17 68 -7 7 -71 -100 -95 -160 -13 -32 -26 -56 -28 -53 -8
7 20 109 45 162 20 44 57 89 125 150 17 16 37 16 170 -2z m-1301 -99 c10 -22
15 -44 12 -49 -3 -5 -12 7 -19 28 -7 20 -25 51 -41 68 l-28 30 29 -19 c16 -10
37 -36 47 -58z m1687 19 c10 -4 6 -15 -16 -39 -37 -43 -69 -126 -83 -219 -7
-40 -13 -77 -14 -83 -5 -18 -157 -6 -172 14 -7 9 -13 40 -13 70 0 72 39 242
62 268 10 11 18 25 18 31 0 9 166 -23 218 -42z m-1764 29 c16 -41 0 -84 -32
-84 -10 0 -12 6 -7 18 5 9 10 32 13 50 5 34 16 42 26 16z m970 -28 c-3 -8 -13
-17 -22 -21 -13 -5 -13 -2 3 15 21 24 26 25 19 6z m-928 -62 c-4 -19 -12 -34
-18 -34 -6 0 -8 9 -4 23 3 12 6 36 6 52 1 26 2 28 11 12 6 -10 8 -34 5 -53z
m-250 -15 c96 -57 106 -65 157 -142 67 -101 83 -132 113 -221 37 -107 28 -102
-30 19 -29 61 -72 133 -94 161 -40 50 -148 141 -157 133 -2 -3 19 -31 47 -64
55 -64 87 -125 88 -164 0 -19 -6 -15 -39 29 -66 88 -224 261 -261 286 l-35 24
54 0 c49 0 66 -7 157 -61z m1192 -2 c-8 -26 -8 -41 -1 -48 7 -7 3 -33 -13 -85
-13 -41 -24 -82 -24 -90 0 -9 -5 -12 -11 -8 -8 4 -10 34 -7 88 3 65 10 92 33
134 15 29 30 51 31 49 2 -2 -2 -20 -8 -40z m-775 -51 c15 -19 32 -47 37 -63
10 -26 7 -25 -27 13 -21 22 -43 49 -50 60 -6 10 -12 14 -12 8 -1 -6 20 -43 45
-83 34 -52 48 -85 51 -119 5 -52 4 -52 -51 33 -39 60 -43 74 -50 157 -3 42 -2
46 14 38 9 -5 29 -25 43 -44z m-86 -8 c11 -13 24 -34 27 -48 6 -22 2 -19 -28
15 -20 22 -36 43 -36 48 0 14 17 7 37 -15z m-23 -50 c-3 -4 13 -34 36 -66 65
-96 71 -116 56 -203 -10 -60 -14 -69 -19 -47 -4 15 -43 81 -87 147 -80 119
-91 146 -68 169 13 13 89 12 82 0z m233 -112 c8 -17 11 -26 7 -21 -5 6 -25 27
-44 49 -33 36 -33 37 -7 21 15 -10 35 -32 44 -49z m261 35 c8 -5 -4 -8 -32 -7
-52 1 -91 -28 -105 -78 -5 -17 -10 -23 -10 -13 -3 66 95 132 147 98z m-1955
-81 c-7 -25 -40 -50 -66 -50 -14 0 -8 9 23 35 23 19 43 35 45 35 2 0 1 -9 -2
-20z m1933 -14 c8 -32 -2 -46 -32 -46 -20 0 -24 5 -24 28 0 33 7 42 31 42 11
0 21 -10 25 -24z m34 -91 c-28 -16 -90 -21 -74 -6 8 8 41 16 84 19 8 1 4 -5
-10 -13z m26 -74 c-15 -14 -16 -14 -16 1 0 15 -3 15 -30 2 -35 -18 -70 -10
-70 15 0 14 10 20 46 24 25 2 53 12 63 21 15 16 16 15 19 -15 2 -19 -3 -38
-12 -48z m-268 24 l4 -30 -26 24 c-32 30 -33 43 -3 39 16 -2 23 -11 25 -33z
m74 -79 c-6 -47 -5 -76 4 -102 7 -20 12 -65 12 -99 -1 -44 4 -71 15 -89 27
-40 21 -62 -20 -82 -21 -9 -32 -19 -26 -21 7 -3 27 3 45 11 17 9 32 15 33 14
1 -2 9 -26 18 -54 9 -27 19 -58 23 -67 5 -15 -1 -17 -50 -17 -49 0 -56 2 -56
20 0 10 -11 36 -25 56 -17 24 -25 51 -25 78 0 23 -5 59 -11 81 -18 63 -12 266
7 255 5 -3 9 -58 9 -123 0 -64 3 -117 7 -117 12 0 19 83 16 201 -2 91 0 120
12 134 21 25 24 6 12 -79z m-108 25 c4 -5 -3 -7 -14 -4 -23 6 -26 13 -6 13 8
0 17 -4 20 -9z m302 -98 c-7 -27 -41 -31 -71 -9 -17 12 -18 17 -7 40 6 14 26
35 44 46 l33 20 3 -37 c2 -20 1 -47 -2 -60z m-297 68 c10 -7 14 -47 16 -172 2
-150 4 -170 29 -239 31 -83 38 -146 19 -144 -7 1 -24 2 -38 3 -14 0 -37 12
-51 26 -24 24 -24 26 -9 62 9 20 23 45 32 55 14 16 13 20 -15 52 -36 42 -55
116 -50 201 3 55 5 60 26 59 27 -1 29 12 2 21 -23 7 -24 11 -9 54 11 32 23 37
48 22z m-655 -35 c85 -41 169 -104 197 -149 23 -39 25 -119 4 -170 -32 -77
-95 -127 -160 -127 -43 0 -65 11 -125 60 -25 21 -93 69 -153 108 -107 71 -126
78 -230 84 l-38 3 35 41 c66 77 200 145 315 160 28 4 54 11 57 15 9 14 22 11
98 -25z m1452 -35 c-9 -10 -35 -24 -58 -29 l-40 -10 33 28 c19 16 45 29 58 30
23 0 23 -1 7 -19z m-486 -67 c0 -14 14 -65 30 -114 38 -112 39 -136 5 -97 -40
46 -81 207 -58 230 13 14 23 6 23 -19z m348 -52 c-35 -35 -81 -78 -103 -95
-39 -31 -38 -30 14 33 89 106 110 126 131 126 16 0 7 -14 -42 -64z m-1673 -83
c39 -11 111 -74 134 -118 10 -17 4 -16 -47 9 -69 35 -162 60 -217 59 l-40 -1
45 -12 c99 -28 187 -80 222 -133 32 -49 19 -48 -29 1 -76 77 -168 112 -228 86
-15 -7 -10 -9 23 -9 85 -2 186 -76 212 -156 29 -88 -18 -219 -115 -318 -102
-104 -176 -122 -261 -64 -67 45 -107 120 -107 198 0 49 7 72 46 151 25 51 59
108 74 127 28 34 28 34 4 21 -14 -7 -47 -36 -74 -64 -49 -50 -50 -50 -20 -9
17 23 42 66 56 95 30 61 97 131 127 133 15 1 19 -3 15 -14 -5 -15 -4 -15 7 0
7 9 20 18 28 22 25 9 103 7 145 -4z m-1985 -55 c6 -14 10 -27 10 -29 0 -1 -21
-6 -47 -10 -58 -9 -93 -26 -142 -71 l-39 -34 -17 26 c-15 23 -15 30 -4 52 29
54 102 89 192 91 32 1 39 -3 47 -25z m176 -1 l121 -5 37 -91 36 -91 -27 -28
c-52 -54 -79 -32 -90 74 l-7 63 -8 -41 c-11 -53 -54 -95 -98 -96 -42 -1 -65
26 -86 101 -8 31 -21 71 -29 89 -20 43 -19 46 8 37 12 -4 77 -10 143 -12z
m186 -70 c23 -32 38 -63 42 -93 5 -40 5 -42 -6 -20 -6 14 -27 55 -45 93 -18
37 -32 67 -30 67 2 0 19 -21 39 -47z m3058 -27 c-33 -48 -75 -71 -133 -71 -27
0 -43 6 -53 20 -20 27 -17 41 4 23 49 -44 122 -28 153 33 12 25 26 39 39 39
18 0 17 -4 -10 -44z m-3430 20 c0 -8 -15 -17 -37 -21 -20 -4 -58 -17 -84 -31
-57 -28 -75 -15 -23 17 70 43 144 61 144 35z m538 -135 c29 -27 30 -46 0 -30
-28 15 -118 99 -118 110 0 9 77 -44 118 -80z m-783 69 c3 -5 1 -10 -4 -10 -6
0 -11 5 -11 10 0 6 2 10 4 10 3 0 8 -4 11 -10z m1810 -132 c-27 -57 -34 -101
-9 -55 30 56 22 24 -14 -50 -31 -66 -37 -90 -40 -160 -5 -105 14 -166 73 -231
59 -66 129 -96 205 -89 66 6 116 29 185 86 55 45 83 54 65 21 -6 -10 -30 -33
-54 -49 -108 -75 -239 -95 -329 -52 -57 28 -128 104 -158 172 -29 63 -44 50
-30 -26 19 -101 86 -196 189 -267 29 -20 41 -35 38 -45 -3 -8 -6 -24 -6 -35 0
-35 -87 -18 -205 41 -55 27 -101 48 -103 46 -19 -19 66 -126 151 -190 36 -28
66 -56 67 -63 0 -19 -29 -72 -40 -72 -6 0 -16 11 -22 25 -14 32 -28 32 -28 0
0 -34 -42 -75 -76 -75 -20 0 -42 15 -83 57 -31 32 -66 72 -78 88 l-22 30 0
-50 c-1 -73 14 -117 58 -164 38 -42 39 -43 13 -36 -39 9 -59 38 -72 103 -19
90 -31 106 -24 31 4 -42 2 -69 -5 -73 -5 -4 -8 -13 -5 -20 9 -24 -17 -29 -44
-9 -53 38 -55 36 -14 -18 22 -29 39 -55 37 -57 -2 -2 -23 6 -47 18 l-43 21 25
-21 c92 -77 140 -123 140 -132 0 -11 -73 29 -141 78 -60 44 -69 43 -30 -1 17
-20 31 -40 31 -45 0 -5 25 -34 55 -64 30 -30 55 -59 55 -65 0 -16 -54 13 -122
66 -32 24 -58 41 -58 38 0 -4 20 -36 45 -72 25 -35 45 -73 45 -84 0 -12 -15
-36 -34 -55 -58 -58 -136 -45 -209 35 -32 35 -67 91 -67 106 0 3 6 5 14 5 31
0 181 201 171 229 -5 12 68 121 80 121 2 0 8 -15 13 -32 l9 -33 7 43 c8 44 21
55 29 25 3 -12 5 -10 6 7 3 68 37 186 83 288 28 62 55 115 59 118 5 3 9 -7 10
-23 1 -23 3 -21 10 12 21 98 33 142 55 191 12 28 20 54 17 57 -2 3 11 43 30
89 20 46 47 112 62 148 23 59 89 170 100 170 2 0 -7 -24 -20 -52z m-610 -1205
c-36 -55 -97 -123 -112 -123 -12 0 112 148 126 150 2 0 -5 -12 -14 -27z m-105
-244 c13 -19 41 -52 62 -75 l38 -40 -40 -56 c-22 -31 -56 -67 -77 -79 l-36
-23 -29 34 c-53 64 -60 129 -23 208 13 29 20 50 15 47 -12 -7 -40 -60 -51 -95
-5 -17 -8 -19 -8 -7 -1 27 25 84 65 139 l37 50 12 -35 c6 -19 22 -50 35 -68z
m-94 -271 c36 -51 39 -75 5 -44 -27 24 -58 102 -65 161 l-6 50 15 -59 c8 -32
31 -81 51 -108z m257 78 c-44 -74 -105 -118 -130 -93 -11 11 -4 24 39 79 l53
67 22 -21 c12 -12 19 -26 16 -32z m64 -43 c5 -15 -47 -63 -69 -63 -24 0 -23 7
10 46 27 32 52 40 59 17z"/>
<path d="M3469 3201 c-23 -18 -23 -19 -5 -47 45 -70 100 -134 115 -134 22 0
41 19 41 41 0 18 -106 159 -119 159 -5 0 -19 -8 -32 -19z m79 -68 c38 -50 54
-94 35 -93 -11 1 -103 127 -103 140 0 25 28 5 68 -47z"/>
<path d="M5180 3037 c0 -8 12 -18 26 -21 48 -12 44 14 -3 29 -17 4 -23 2 -23
-8z"/>
<path d="M2054 2141 c-32 -19 -74 -67 -74 -83 0 -9 116 77 126 94 9 14 -20 8
-52 -11z"/>
<path d="M1772 1665 c-14 -47 -15 -75 -3 -94 14 -21 23 22 19 85 l-3 49 -13
-40z"/>
</g>
</svg>
