<?xml version="1.0" standalone="no"?>
<!DOCTYPE svg PUBLIC "-//W3C//DTD SVG 20010904//EN"
 "http://www.w3.org/TR/2001/REC-SVG-20010904/DTD/svg10.dtd">
<svg version="1.0" xmlns="http://www.w3.org/2000/svg"
 width="378.000000pt" height="550.000000pt" viewBox="0 0 378.000000 550.000000"
 preserveAspectRatio="xMidYMid meet">

<g transform="translate(0.000000,550.000000) scale(0.100000,-0.100000)"
fill="#000000" stroke="none">
<path d="M1345 5473 c-229 -51 -431 -195 -517 -369 -34 -70 -41 -93 -45 -165
-3 -53 1 -127 11 -199 16 -108 20 -119 64 -185 46 -68 94 -120 182 -197 40
-35 42 -40 37 -75 -7 -43 -46 -83 -81 -83 -23 0 -59 -33 -89 -83 -10 -15 -33
-37 -52 -50 -39 -26 -65 -68 -90 -150 -16 -50 -26 -64 -74 -100 -42 -33 -68
-65 -111 -137 -31 -52 -61 -115 -67 -140 -6 -25 -18 -70 -27 -100 -34 -118 -9
-259 58 -326 48 -47 136 -77 231 -77 127 -1 211 47 260 147 15 30 52 85 84
123 32 37 65 83 74 100 16 31 18 31 82 29 36 -1 69 -6 73 -12 5 -5 15 -36 22
-69 12 -59 44 -102 95 -131 18 -10 18 -14 6 -66 -8 -31 -11 -67 -8 -80 4 -14
33 -55 66 -91 33 -38 61 -81 65 -98 12 -60 6 -199 -9 -236 -22 -51 -19 -75 17
-144 28 -53 32 -72 32 -134 0 -64 -4 -81 -42 -157 -23 -47 -42 -99 -42 -117 0
-18 -9 -44 -20 -58 -30 -38 -29 -172 3 -233 35 -69 63 -84 168 -88 99 -4 96
-1 78 -80 -9 -38 -9 -58 0 -83 11 -31 9 -40 -29 -112 l-40 -78 -9 -167 c-7
-142 -12 -175 -31 -217 -19 -41 -23 -70 -25 -155 -1 -58 -7 -125 -14 -150 -17
-70 -13 -121 20 -294 31 -164 68 -274 76 -228 4 21 8 19 49 -27 54 -60 108
-81 208 -81 59 -1 68 -3 51 -12 -11 -7 -49 -12 -85 -12 -65 0 -118 18 -180 61
l-25 17 19 -22 c10 -12 41 -33 69 -47 84 -42 187 -31 253 27 78 69 82 115 30
361 -43 203 -44 221 -11 250 63 56 82 77 92 108 6 19 43 126 83 239 67 191 72
214 85 341 9 93 19 151 34 184 11 26 20 57 20 69 -1 17 -2 17 -6 4 -6 -23 -15
-23 -31 2 -10 16 -23 20 -63 20 -28 0 -49 4 -47 10 2 5 27 27 57 50 46 34 51
40 30 40 -13 -1 -35 -7 -49 -15 -39 -22 -57 -19 -35 5 18 20 18 20 -27 3 l-46
-17 -56 43 c-83 64 -84 66 -31 81 57 16 58 30 3 30 -80 0 -109 15 -158 83 -31
42 -61 71 -95 89 -57 31 -68 55 -69 155 -1 58 2 65 47 130 27 37 80 116 119
176 48 73 78 109 94 113 57 14 143 -24 172 -77 9 -17 25 -41 35 -53 18 -21 18
-21 15 17 -5 47 4 47 32 1 15 -27 24 -34 32 -26 15 15 64 -23 94 -73 13 -23
26 -66 30 -100 4 -33 15 -82 25 -108 20 -51 26 -122 9 -112 -5 3 -18 26 -29
51 -12 26 -30 48 -43 53 -34 13 -34 6 2 -36 39 -44 80 -130 87 -182 7 -51 -39
-200 -74 -242 -15 -17 -40 -37 -56 -44 l-29 -12 29 -11 c29 -10 31 -8 71 52
24 37 50 95 65 148 24 81 24 89 11 129 -11 32 -13 53 -5 88 8 39 6 53 -15 104
-30 71 -44 177 -37 271 6 69 15 96 35 96 22 0 122 -109 147 -160 23 -47 35
-59 100 -98 125 -73 148 -95 161 -156 15 -74 56 -113 136 -130 36 -8 68 -38
83 -79 16 -42 13 -139 -5 -183 -13 -30 -17 -76 -19 -204 -2 -145 -5 -178 -30
-270 -24 -93 -26 -110 -16 -151 14 -52 10 -66 -36 -133 -18 -26 -33 -54 -33
-60 0 -17 85 -135 109 -152 10 -8 30 -31 42 -51 23 -38 37 -53 52 -53 4 0 -3
15 -17 33 -44 58 -15 50 38 -10 28 -31 57 -65 64 -75 21 -30 -4 -21 -39 14
-50 50 -23 11 49 -69 101 -113 206 -151 297 -107 45 21 86 83 92 138 5 39 0
56 -39 128 -76 142 -138 285 -138 321 0 19 7 40 16 48 27 22 51 80 83 202 38
141 66 219 123 335 37 75 43 95 41 147 -2 83 -38 247 -80 369 -20 55 -39 130
-43 166 -4 36 -8 53 -8 39 -1 -15 -11 -38 -22 -52 -18 -22 -18 -26 -4 -38 22
-18 54 -84 54 -112 0 -34 -12 -41 -131 -82 -124 -44 -146 -57 -164 -98 l-13
-31 -23 47 c-15 32 -28 46 -37 42 -11 -4 -13 1 -8 21 4 15 10 40 13 57 l6 30
-56 -7 c-67 -7 -73 4 -25 44 41 34 34 60 -16 60 -32 0 -36 4 -44 33 -6 25 -15
33 -38 37 -42 7 -68 25 -59 40 6 9 31 11 96 8 49 -3 89 -2 89 3 0 20 -56 48
-108 55 -31 3 -66 11 -77 17 -11 6 -63 23 -115 38 -52 14 -96 31 -97 36 -2 6
13 14 34 17 131 23 144 27 132 43 -7 8 -36 26 -63 40 -28 14 -59 32 -68 41
-33 29 -16 125 24 138 10 3 38 3 61 0 l42 -6 -42 20 -42 21 24 67 c31 87 43
95 125 89 36 -2 70 -3 77 0 27 10 -3 34 -68 55 -59 19 -69 25 -67 43 3 18 9
20 57 18 111 -5 195 -54 229 -133 8 -19 28 -80 43 -135 25 -87 28 -93 23 -45
-3 30 -7 57 -8 60 0 3 3 7 8 10 16 9 218 -335 252 -430 l13 -35 1 30 c0 27
-12 52 -52 107 -10 13 -7 27 16 73 15 32 35 91 43 133 34 167 -37 321 -183
395 -17 9 -83 30 -145 48 -142 39 -178 57 -252 128 -49 46 -160 172 -215 243
-26 33 -112 242 -103 251 5 5 41 0 86 -13 42 -12 79 -20 81 -18 2 2 -35 16
-81 32 l-84 27 -26 87 c-15 48 -38 104 -52 124 -31 46 -28 75 19 185 27 64 42
84 82 115 28 20 56 48 63 63 9 17 49 43 121 80 59 29 98 54 87 54 -32 1 -66
30 -86 75 -27 59 -25 65 30 72 l49 6 -22 49 c-11 27 -27 49 -33 49 -23 0 -14
22 26 61 40 41 74 49 103 27 19 -15 38 -78 38 -130 0 -52 -34 -156 -62 -186
l-23 -25 27 19 c47 34 61 78 65 204 l4 115 -53 88 c-44 75 -61 93 -108 121
-114 68 -175 99 -161 82 8 -9 35 -29 60 -43 113 -64 141 -86 171 -135 17 -28
30 -52 28 -53 -2 -2 -15 -6 -31 -10 -21 -6 -27 -4 -27 8 0 27 -27 44 -82 51
-118 15 -115 13 -139 72 -18 47 -65 102 -76 91 -2 -2 13 -34 32 -71 19 -37 35
-78 35 -90 0 -26 -34 -60 -70 -71 -27 -8 -29 -16 25 69 l19 28 -46 -32 c-31
-22 -54 -31 -74 -28 l-29 3 33 18 c47 26 40 34 -25 29 -56 -4 -57 -4 -40 14
14 15 30 19 77 17 l59 -2 -11 32 c-13 39 -36 67 -55 67 -7 0 -41 -14 -74 -31
-34 -17 -63 -28 -66 -25 -9 8 8 45 34 76 20 24 33 30 63 30 21 0 50 -4 65 -10
23 -9 25 -8 15 9 -5 11 -10 21 -10 23 0 2 21 2 48 1 l47 -2 -53 9 c-40 6 -75
22 -136 63 -87 58 -129 81 -173 97 l-28 10 24 -19 24 -19 -21 -11 c-29 -15
-72 -14 -145 6 -75 20 -84 27 -66 49 11 13 26 16 84 12 l70 -5 -50 12 c-62 16
-155 18 -190 5 -22 -8 -64 -76 -53 -85 19 -15 56 -25 98 -25 62 0 108 -22 116
-56 8 -33 -20 -64 -58 -64 -32 0 -92 -23 -102 -38 -11 -18 15 -59 49 -77 23
-13 46 -16 86 -13 47 5 62 1 122 -28 67 -34 67 -34 67 -77 0 -46 27 -114 53
-136 28 -23 9 -31 -72 -31 -43 0 -117 -7 -164 -15 -93 -16 -131 -9 -142 26 -3
9 -20 22 -37 28 -52 18 -68 39 -68 88 0 25 -12 79 -26 121 -84 251 -225 409
-407 458 -48 13 -216 17 -262 7z m80 -24 c-207 -30 -414 -167 -502 -331 -14
-26 -19 -44 -13 -48 7 -4 5 -44 -6 -116 -16 -110 -32 -162 -21 -69 11 88 17
180 12 170 -3 -5 -18 -55 -33 -110 -21 -74 -33 -101 -46 -103 -16 -4 -18 5
-14 90 3 81 7 102 35 159 100 202 365 369 583 367 l65 0 -60 -9z m254 -78
c108 -38 142 -67 197 -168 52 -97 43 -106 -38 -38 -130 109 -189 127 -413 124
-88 -1 -168 -1 -177 0 -36 2 -16 23 50 53 143 66 250 74 381 29z m525 -8 c-8
-31 -20 -43 -46 -43 -9 0 -23 -3 -32 -6 -11 -4 -16 0 -16 13 0 31 37 57 88 62
9 1 10 -7 6 -26z m376 -103 c48 -25 100 -72 84 -77 -6 -2 -71 16 -145 40 -123
41 -132 45 -109 56 36 16 120 6 170 -19z m-158 -125 c62 -68 82 -100 74 -121
-8 -22 -33 -17 -107 23 l-69 37 -36 -17 c-35 -17 -38 -17 -80 4 -30 14 -44 27
-44 40 0 27 21 33 73 22 52 -12 83 -2 92 29 9 28 25 50 35 46 4 -2 32 -30 62
-63z m-403 -251 c1 -39 -4 -65 -12 -72 -7 -6 -49 -18 -92 -27 -116 -24 -251
-69 -408 -136 -145 -62 -215 -78 -344 -79 -39 0 -75 -4 -78 -10 -8 -13 -62
-13 -70 1 -4 6 2 13 14 16 16 4 19 9 11 23 -6 10 -10 21 -10 23 0 2 55 7 123
10 305 16 594 129 792 310 l60 55 6 -27 c4 -14 7 -54 8 -87z m961 31 c0 -3
-19 -41 -42 -83 -67 -122 -107 -152 -184 -138 -47 9 -39 24 26 49 49 19 52 22
30 27 -26 5 -26 5 -13 52 14 46 15 47 86 72 74 25 97 30 97 21z m-984 -151
c-277 -43 -582 -173 -886 -377 l-45 -30 35 37 c143 151 708 385 930 384 51 0
48 -1 -34 -14z m-1087 -42 c24 -48 36 -108 23 -116 -6 -3 -20 23 -33 61 -12
38 -24 74 -27 81 -11 29 19 8 37 -26z m1599 3 c12 -9 28 -39 38 -70 8 -30 20
-57 25 -60 13 -9 11 5 -11 70 -11 33 -19 63 -17 68 2 6 56 -52 121 -126 81
-95 124 -152 137 -187 11 -28 17 -55 14 -61 -14 -21 -33 -6 -48 39 l-17 47 5
-52 c2 -29 1 -53 -3 -53 -4 0 -25 23 -47 50 -46 58 -66 67 -30 14 18 -27 25
-50 25 -85 0 -49 -14 -99 -27 -99 -8 1 -233 497 -233 513 0 13 45 7 68 -8z
m-166 -50 c21 -28 67 -108 103 -180 76 -156 212 -492 202 -501 -4 -4 -26 -8
-49 -8 -33 -1 -42 2 -40 14 2 8 1 29 -3 46 -4 24 -12 34 -27 36 -18 2 -32 28
-77 141 -31 77 -56 135 -57 130 -1 -4 -5 -21 -8 -36 -5 -19 -17 -33 -39 -42
-25 -11 -28 -14 -11 -15 12 0 24 -6 27 -14 8 -21 -150 -81 -169 -65 -21 17
-18 23 32 43 76 31 44 27 -71 -9 -162 -51 -190 -33 -71 45 63 41 66 45 46 54
-17 8 -30 6 -52 -7 -16 -9 -35 -17 -42 -17 -6 0 -36 25 -66 56 l-55 56 35 30
35 30 -52 -6 -52 -7 -40 60 c-23 33 -41 64 -41 69 0 11 266 82 336 89 71 8
114 -19 149 -92 31 -63 30 -106 -2 -120 -28 -12 -30 -25 -5 -25 10 0 39 -10
64 -23 l44 -22 -63 159 c-35 87 -62 165 -59 173 10 25 39 10 78 -42z m-173 36
c17 -11 -25 -23 -239 -71 -80 -18 -161 -37 -181 -41 -20 -5 -53 -23 -74 -39
-21 -17 -45 -30 -54 -30 -9 -1 -32 -10 -51 -21 -19 -11 -26 -17 -15 -14 58 18
115 27 131 20 17 -6 16 -9 -9 -17 -40 -14 -33 -47 13 -62 48 -15 53 -49 11
-71 -17 -8 -31 -21 -31 -28 0 -11 16 -11 77 -4 68 8 79 7 102 -11 41 -31 32
-66 -36 -134 l-57 -58 32 0 c18 0 32 -4 32 -10 0 -5 -13 -10 -29 -10 -41 0
-76 -35 -101 -100 -23 -60 -46 -100 -58 -100 -20 1 -35 19 -25 32 5 7 25 40
43 73 l34 60 -34 -23 c-64 -42 -77 -46 -117 -34 -21 6 -51 14 -67 17 -26 5
-28 9 -22 37 5 27 4 29 -10 17 -14 -11 -19 -10 -36 10 l-19 24 43 44 c46 47
40 52 -38 28 -62 -19 -68 -19 -60 1 5 13 2 15 -14 11 -38 -10 -30 12 16 45
l46 33 -48 8 c-31 5 -55 5 -65 -2 -20 -12 -29 -5 -29 24 0 27 24 39 131 61 46
10 84 18 85 18 1 1 4 14 8 29 l7 29 -54 -31 c-63 -36 -87 -38 -111 -12 -16 17
-14 20 46 59 151 98 479 221 653 245 58 8 160 7 174 -2z m-1019 -155 c0 -2
-16 -13 -36 -25 -38 -23 -80 -27 -104 -10 -12 8 -11 9 6 4 12 -3 44 3 70 14
50 20 64 24 64 17z m1380 -145 c54 -122 58 -133 43 -138 -7 -3 -114 231 -113
250 1 28 24 -10 70 -112z m-77 -264 c54 -156 79 -238 75 -243 -3 -3 -110 246
-156 365 -4 10 1 9 20 -3 19 -12 35 -44 61 -119z m-1217 71 c38 -29 92 -75
120 -103 58 -58 156 -203 173 -258 7 -20 21 -42 32 -47 10 -6 26 -24 34 -40
15 -29 15 -31 -7 -39 -13 -5 -29 -6 -36 -2 -14 8 -130 141 -328 375 -95 112
-123 151 -113 157 28 18 58 8 125 -43z m1138 -27 c-18 -16 -164 -69 -164 -60
0 5 0 12 -1 16 -1 11 166 71 170 61 2 -5 -1 -13 -5 -17z m-226 -14 c13 -15
182 -375 182 -387 0 -13 -106 -52 -132 -48 -16 2 -32 21 -58 68 -19 36 -43 66
-53 68 -10 2 -39 -3 -64 -12 -26 -9 -47 -15 -49 -13 -6 6 -114 240 -112 242 9
6 255 94 264 95 6 0 16 -6 22 -13z m-1074 -19 c9 -12 14 -23 13 -25 -6 -5
-107 31 -107 39 0 4 18 8 39 8 30 0 44 -6 55 -22z m1316 8 c0 -19 -150 -80
-164 -66 -6 6 0 13 20 20 16 6 54 22 84 35 30 13 56 24 58 24 1 1 2 -5 2 -13z
m14 -35 c6 -9 -126 -71 -150 -71 -32 0 -9 18 59 47 83 36 84 36 91 24z m65
-141 c22 -58 41 -111 43 -119 2 -8 -26 -25 -75 -46 l-77 -33 -14 31 c-8 18
-33 72 -56 121 -22 49 -38 92 -33 97 14 14 158 66 165 60 4 -3 25 -53 47 -111z
m-648 81 c13 -10 49 -69 78 -130 30 -61 61 -113 67 -115 7 -3 28 -1 46 5 65
18 77 13 103 -43 14 -29 25 -58 25 -65 0 -10 -72 -36 -190 -69 -22 -6 -223
336 -222 378 1 57 46 76 93 39z m-718 -31 l58 -33 -20 -21 -20 -22 49 -17 c35
-13 54 -26 65 -47 8 -16 24 -34 35 -40 11 -6 30 -30 41 -53 12 -23 30 -53 40
-66 35 -45 20 -161 -27 -203 -11 -9 -50 -28 -88 -42 -39 -15 -84 -38 -102 -51
-18 -14 -37 -25 -43 -25 -16 0 -13 58 5 96 18 37 39 51 127 84 73 27 99 57 95
106 -4 52 -36 64 -104 40 -125 -46 -164 -30 -164 65 0 32 5 80 11 107 16 70 7
102 -31 102 -51 0 -78 -17 -98 -62 -10 -24 -41 -68 -68 -98 -28 -30 -58 -74
-69 -98 -22 -52 -39 -62 -100 -62 l-47 0 81 87 81 87 0 62 c0 74 14 95 85 124
70 28 134 22 208 -20z m-55 -63 c2 -16 -3 -47 -11 -70 -20 -58 -6 -164 24
-189 27 -23 53 -23 131 2 76 24 92 25 108 5 22 -26 1 -52 -68 -84 -37 -18 -98
-54 -137 -82 -38 -27 -96 -59 -128 -71 -32 -11 -60 -25 -63 -30 -4 -5 4 -20
16 -33 l22 -23 -22 -12 c-12 -6 -24 -10 -26 -7 -13 13 -16 81 -4 102 15 28 6
116 -15 155 -12 22 -14 23 -21 7 -3 -10 -2 -43 5 -73 7 -40 8 -62 0 -76 -10
-19 -11 -19 -31 -1 -39 35 -51 72 -45 140 9 92 26 139 67 186 40 45 62 46 82
2 10 -22 8 -29 -18 -56 -22 -23 -26 -33 -18 -46 21 -33 32 -24 44 34 25 127
51 227 62 240 18 22 43 11 46 -20z m269 -104 c46 -59 72 -106 93 -169 34 -98
23 -118 -13 -23 -19 49 -58 121 -91 168 -57 82 -49 101 11 24z m1256 -89 l25
-70 -34 -40 c-43 -50 -43 -58 1 -33 19 12 35 16 35 11 0 -6 3 -17 6 -25 4 -12
-23 -24 -118 -56 -68 -23 -126 -41 -130 -41 -4 0 -15 14 -23 30 l-16 31 93 44
c97 46 106 60 18 25 -74 -29 -84 -24 -17 11 32 16 55 33 53 38 -3 4 8 21 25
36 30 30 55 96 43 118 -5 8 -4 9 3 2 6 -5 22 -42 36 -81z m153 -39 c26 -64 15
-91 -41 -97 -29 -3 -30 -1 -33 38 -2 29 3 47 18 67 28 35 38 34 56 -8z m-1044
-62 c16 -27 16 -27 -24 -50 -23 -13 -43 -21 -46 -18 -8 8 18 78 32 87 17 12
20 10 38 -19z m1082 -65 c27 -38 20 -67 -19 -84 -52 -21 -73 -18 -90 16 -21
40 -20 43 23 68 47 27 67 27 86 0z m52 -50 c9 -18 34 -52 56 -74 51 -53 35
-65 -21 -16 -33 28 -45 47 -51 80 -4 23 -6 42 -4 42 2 0 11 -15 20 -32z m-206
-24 c13 -13 -164 -108 -260 -139 -30 -10 -95 -37 -145 -60 -132 -63 -127 -63
-153 -9 -12 25 -20 50 -17 55 9 13 4 12 -60 -16 -32 -14 -60 -24 -63 -21 -2 3
16 25 42 50 35 33 58 46 89 50 24 4 72 24 107 46 70 43 94 49 104 24 11 -28 7
-31 -99 -75 -57 -23 -103 -44 -102 -46 2 -1 109 33 238 77 187 63 242 78 274
74 21 -3 42 -7 45 -10z m-1806 -86 c59 -68 63 -103 8 -89 -15 4 -37 22 -49 41
-23 33 -32 100 -14 100 5 0 30 -24 55 -52z m2129 -74 c11 -19 -10 -74 -27 -74
-20 0 -103 59 -120 84 -19 29 -30 72 -22 84 7 12 156 -71 169 -94z m-1878 39
c-14 -57 -84 -123 -130 -123 -18 0 -18 3 -5 52 14 48 71 98 111 98 29 0 31 -2
24 -27z m790 -14 c31 -38 29 -59 -8 -77 -38 -18 -57 -9 -57 27 0 32 18 81 31
81 4 0 19 -14 34 -31z m915 -66 c71 -53 128 -99 126 -101 -2 -2 -38 7 -81 19
-70 21 -78 26 -96 61 -11 21 -30 45 -43 53 -26 17 -32 16 -150 -20 -27 -8 -46
-12 -43 -9 18 19 134 93 145 93 7 1 70 -43 142 -96z m-92 15 c21 -21 13 -28
-36 -28 -49 0 -66 -8 -92 -45 -10 -13 -4 -11 18 8 40 32 82 35 107 7 19 -21
13 -42 -7 -22 -7 7 -21 12 -32 12 -19 0 -56 -26 -56 -40 0 -4 -7 -25 -16 -46
l-17 -39 -8 30 c-5 17 -6 39 -3 50 5 17 3 16 -12 -4 -16 -22 -16 -29 -2 -110
9 -47 14 -89 12 -92 -2 -3 -28 -14 -59 -24 -51 -18 -59 -18 -83 -5 -14 9 -29
26 -32 39 l-5 24 -14 -29 -14 -29 -10 32 -9 31 -22 -40 c-31 -58 -52 -69 -77
-39 -25 31 -25 87 0 101 26 14 64 13 79 -2 9 -9 12 -9 12 -1 0 23 -40 41 -81
36 -22 -3 -39 -1 -39 4 0 11 44 33 66 33 27 0 73 -30 88 -58 9 -15 15 -22 16
-16 0 22 -46 79 -74 89 -23 8 -38 4 -89 -22 -33 -18 -64 -30 -69 -27 -14 9 12
44 40 56 168 66 471 177 488 178 11 0 25 -5 32 -12z m-1645 -96 c-30 -50 -96
-96 -150 -107 -46 -9 -41 9 6 23 40 13 57 26 63 52 2 8 26 37 53 64 39 37 51
44 53 31 2 -9 -9 -38 -25 -63z m900 30 c15 -15 27 -32 27 -37 0 -22 -55 -65
-83 -65 -72 0 -92 57 -36 104 39 33 59 33 92 -2z m1105 -24 c10 -37 10 -38
-16 -37 -15 0 -35 4 -45 7 -16 7 -16 11 10 44 31 41 37 39 51 -14z m-688 23
c0 -5 -46 -26 -102 -46 -57 -21 -109 -40 -115 -42 -7 -3 -13 0 -13 5 0 16 64
62 107 78 43 15 123 18 123 5z m335 -40 c39 -22 51 -34 53 -56 l4 -28 -49 8
c-62 9 -81 20 -89 50 -6 23 9 56 25 54 3 0 29 -13 56 -28z m117 -55 c2 -24 -2
-41 -9 -43 -15 -5 -38 69 -29 93 11 28 34 -3 38 -50z m409 -16 c11 -6 19 -21
19 -35 0 -38 -15 -37 -33 1 -24 49 -22 53 14 34z m-1236 -179 c-6 -43 -49
-101 -73 -101 -6 0 -20 16 -32 35 -20 32 -21 40 -10 85 7 28 16 50 21 50 5 0
9 9 9 20 0 22 16 27 23 8 3 -10 7 -10 20 0 9 8 21 11 27 7 5 -3 11 0 12 7 1 7
3 -5 5 -27 3 -22 2 -60 -2 -84z m1384 33 c89 -26 169 -115 186 -205 7 -36 -9
-119 -23 -119 -6 0 -232 312 -240 332 -5 12 18 10 77 -8z m-626 -23 c-34 -29
-28 -34 29 -27 51 7 52 7 35 -12 -12 -13 -14 -21 -7 -24 20 -6 -1 -58 -37 -93
-33 -32 -118 -74 -128 -63 -11 11 7 36 45 64 22 16 40 32 40 37 0 4 -15 7 -33
7 -37 0 -55 12 -81 53 -19 31 -24 27 71 57 77 24 94 24 66 1z m229 -18 c10 -9
18 -23 18 -31 0 -19 -161 -312 -171 -312 -4 0 -22 14 -39 32 -26 26 -31 37
-27 64 8 49 96 222 124 244 31 24 70 26 95 3z m-727 -40 c40 -19 42 -24 16
-47 -21 -19 -47 -16 -89 11 -23 14 -23 15 -6 34 21 23 33 24 79 2z m254 -44
c22 -8 30 -16 27 -26 -3 -8 -6 -16 -6 -19 0 -2 -28 -18 -62 -35 -51 -26 -59
-33 -44 -41 9 -5 34 -7 55 -3 29 5 42 2 55 -11 10 -9 14 -20 9 -24 -10 -10
-223 -24 -223 -15 0 3 12 22 26 41 31 40 27 41 -43 14 -66 -25 -70 -11 -13 45
22 21 40 47 40 56 0 10 10 19 23 22 45 9 125 7 156 -4z m-694 -41 l0 -36 58
-7 c71 -8 87 -13 87 -30 0 -24 -21 -28 -82 -15 -37 8 -62 19 -65 29 -3 9 -15
23 -26 33 -18 14 -20 19 -9 43 17 36 37 26 37 -17z m490 -158 c86 -58 179
-146 187 -176 5 -19 -17 -11 -156 57 l-161 80 1 34 c1 39 21 68 41 61 7 -3 47
-28 88 -56z m-551 -744 c9 -66 14 -121 12 -124 -2 -2 -14 1 -25 8 -57 30 -70
114 -32 194 13 26 25 46 26 44 2 -2 11 -57 19 -122z m1976 120 c0 -25 -28 -40
-138 -77 -70 -23 -130 -44 -134 -48 -4 -4 1 -45 12 -91 43 -181 42 -180 229
-111 47 17 88 28 92 24 18 -19 -31 -53 -117 -82 -164 -56 -192 -41 -225 114
-31 146 -31 148 -17 168 25 33 298 128 298 103z m10 -81 c0 -30 -36 -51 -111
-65 -52 -10 -129 -4 -129 10 0 10 186 77 218 79 17 1 22 -4 22 -24z m9 -63
c-13 -38 -77 -74 -124 -70 l-36 3 78 47 c43 26 81 47 85 48 4 0 3 -13 -3 -28z
m4 -97 c-19 -14 -124 -47 -130 -41 -2 2 29 24 69 50 67 42 73 44 76 25 2 -12
-5 -27 -15 -34z m-372 -150 c20 -3 54 -19 75 -35 20 -17 47 -33 59 -36 30 -7
95 11 183 51 80 38 91 31 51 -34 -36 -59 -87 -193 -119 -316 -57 -211 -89
-248 -221 -247 -93 1 -144 29 -114 62 12 13 9 26 -20 90 -30 67 -35 90 -44
215 -6 77 -11 157 -11 178 l0 38 73 -5 c39 -3 63 -3 52 0 -45 13 -66 59 -22
50 12 -3 38 -7 58 -11z m-993 -77 c7 -7 12 -25 12 -40 0 -25 -2 -27 -19 -19
-17 10 -201 31 -263 31 -44 0 -58 -23 -58 -98 0 -72 -28 -183 -48 -190 -15 -5
-15 2 3 122 8 55 15 111 15 126 0 52 20 64 117 71 161 10 228 10 241 -3z m-23
-98 c-16 -16 -40 -21 -123 -26 -101 -7 -120 -2 -89 24 12 10 53 14 187 20 44
2 44 2 25 -18z m-9 -59 c-29 -32 -68 -42 -147 -39 -67 3 -72 4 -51 16 13 7 62
17 109 22 47 5 88 11 91 15 15 14 13 3 -2 -14z m-24 -81 c-38 -31 -151 -49
-197 -31 -16 7 -8 11 35 19 30 6 75 15 100 20 25 6 54 10 65 11 19 0 19 -1 -3
-19z m-380 -104 c9 -27 22 -54 28 -60 6 -6 76 -15 155 -20 127 -8 150 -7 179
7 l34 16 -13 -42 c-8 -23 -42 -127 -75 -232 -49 -151 -67 -195 -90 -217 -48
-45 -86 -49 -197 -24 -123 28 -136 35 -164 93 -21 43 -22 51 -11 115 7 38 12
119 12 181 l0 112 57 -3 c45 -2 54 0 41 8 -22 14 -23 30 -3 30 13 0 11 9 -10
43 -14 24 -25 46 -25 49 0 3 14 3 32 -1 28 -6 35 -14 50 -55z m382 -35 c-28
-23 -32 -24 -148 -18 -102 5 -123 9 -140 27 l-20 20 124 0 c69 0 132 5 140 10
10 7 -23 10 -102 10 -139 0 -164 19 -30 22 48 1 109 3 136 4 33 0 52 6 55 15
4 8 7 -4 9 -26 3 -33 -1 -44 -24 -64z m1147 -191 c10 0 19 -5 19 -11 0 -5 41
-88 90 -182 100 -190 119 -242 104 -284 -14 -41 -77 -73 -144 -73 l-55 0 -131
132 c-162 165 -194 208 -194 260 0 32 22 98 33 98 2 0 20 -9 42 -20 50 -25 73
-25 94 1 9 11 32 24 51 28 29 5 36 12 38 35 3 20 8 26 19 22 8 -3 23 -6 34 -6z
m-1395 -405 c-3 -8 11 -95 31 -192 59 -286 56 -326 -25 -360 -45 -19 -143 -13
-190 11 -54 28 -104 79 -128 131 -21 43 -24 66 -24 163 0 62 4 122 10 132 7
14 34 23 111 36 74 13 103 22 110 36 10 19 74 57 98 58 8 0 11 -6 7 -15z"/>
<path d="M1618 4218 c-49 -22 -88 -47 -88 -54 0 -8 3 -14 6 -14 8 0 194 101
194 106 0 11 -32 0 -112 -38z"/>
<path d="M1984 3786 c-40 -18 -52 -36 -31 -48 10 -5 14 -15 10 -25 -5 -13 -2
-15 18 -10 76 19 128 57 79 57 -18 0 -19 3 -10 20 9 17 8 20 -12 20 -13 -1
-37 -7 -54 -14z"/>
<path d="M3435 570 c11 -12 34 -29 52 -36 39 -17 43 -17 43 -4 0 6 -7 10 -16
10 -9 0 -28 8 -42 18 -48 33 -58 36 -37 12z"/>
<path d="M1765 307 c3 -10 5 -26 5 -35 0 -9 12 -35 26 -57 30 -48 24 -18 -12
58 -14 29 -22 44 -19 34z"/>
<path d="M3284 4281 c-60 -28 -63 -42 -4 -20 55 21 124 25 166 9 36 -14 44 -4
8 11 -53 21 -125 21 -170 0z"/>
<path d="M135 4234 c-44 -23 -72 -52 -95 -99 -25 -51 -25 -98 -1 -150 60 -134
220 -166 319 -64 45 46 58 99 41 169 l-12 55 -19 -75 c-11 -41 -24 -80 -30
-87 -13 -16 -79 -17 -130 -3 -65 18 -111 99 -94 166 8 32 50 50 136 60 l65 7
-40 18 c-49 23 -101 24 -140 3z"/>
<path d="M3192 4212 c-26 -9 -55 -85 -55 -147 -1 -150 132 -256 281 -224 98
20 162 90 176 189 6 45 6 45 -8 15 -25 -53 -51 -69 -121 -73 -36 -2 -81 -1
-100 2 -72 14 -138 100 -154 201 -4 28 -10 40 -19 37z"/>
<path d="M1123 2125 c-18 -8 -33 -17 -33 -20 0 -3 9 -1 19 5 11 5 37 14 58 19
27 7 31 9 13 10 -14 0 -40 -6 -57 -14z"/>
<path d="M1056 2072 c-10 -12 -21 -41 -23 -66 -6 -53 23 -113 69 -140 38 -23
104 -24 146 -2 36 19 72 70 71 101 0 14 -2 16 -6 5 -10 -29 -37 -40 -94 -40
-85 0 -129 43 -141 139 l-3 23 -19 -20z"/>
<path d="M1940 2033 c0 -5 27 -16 60 -25 33 -9 60 -12 60 -8 0 4 -20 13 -44
19 -24 6 -51 13 -60 17 -9 3 -16 2 -16 -3z"/>
<path d="M2696 1526 c-21 -8 -45 -21 -53 -29 -11 -11 -2 -10 39 4 67 23 93 23
146 -1 50 -23 54 -19 10 8 -46 28 -96 34 -142 18z"/>
<path d="M2573 1418 c-27 -50 -25 -180 4 -233 53 -100 154 -139 248 -96 67 31
116 103 114 168 0 26 -1 27 -9 6 -29 -71 -180 -81 -242 -16 -32 34 -64 103
-73 161 -8 50 -19 53 -42 10z"/>
</g>
</svg>
