<?xml version="1.0" standalone="no"?>
<!DOCTYPE svg PUBLIC "-//W3C//DTD SVG 20010904//EN"
 "http://www.w3.org/TR/2001/REC-SVG-20010904/DTD/svg10.dtd">
<svg version="1.0" xmlns="http://www.w3.org/2000/svg"
 width="450.000000pt" height="550.000000pt" viewBox="0 0 450.000000 550.000000"
 preserveAspectRatio="xMidYMid meet">

<g transform="translate(0.000000,550.000000) scale(0.100000,-0.100000)"
fill="#000000" stroke="none">
<path d="M1880 5489 c-466 -31 -939 -133 -1174 -251 -245 -124 -392 -321 -451
-602 -28 -136 -37 -319 -39 -761 -3 -486 -1 -471 -101 -835 -116 -423 -136
-684 -89 -1130 8 -80 24 -232 34 -339 10 -106 20 -195 23 -197 2 -2 86 17 188
42 441 109 943 198 1516 269 l51 7 -4 -39 c-2 -21 -20 -171 -40 -333 l-35
-294 21 -16 c20 -15 21 -22 14 -126 l-7 -110 -106 -3 c-58 -1 -108 -6 -111
-11 -3 -4 -14 -7 -25 -7 -79 2 -126 -4 -119 -15 4 -6 -5 -21 -22 -35 -21 -17
-24 -23 -12 -23 9 0 23 6 31 14 8 8 25 13 38 10 13 -2 18 -2 12 2 -15 6 -18
24 -5 24 5 0 14 -12 20 -26 7 -14 8 -23 2 -19 -5 3 -10 0 -10 -9 0 -8 -6 -16
-12 -19 -7 -2 1 -4 19 -5 17 0 41 -6 52 -12 17 -9 20 -8 14 6 -5 14 1 15 43
11 27 -2 60 -8 73 -12 15 -5 22 -4 18 1 -3 6 10 11 30 12 45 3 56 10 49 28 -3
8 -1 14 4 14 6 0 10 -15 10 -34 0 -30 3 -34 24 -32 13 0 22 4 19 9 -7 12 2 9
55 -18 28 -14 65 -25 83 -26 l34 -1 -35 -10 c-20 -5 -123 -8 -245 -6 -213 4
-216 4 -297 46 -5 2 -8 -1 -8 -8 0 -6 21 -21 48 -33 41 -19 69 -22 235 -25
205 -5 311 5 499 43 86 18 179 29 311 35 125 6 238 18 335 36 81 15 149 29
151 30 16 14 -25 11 -150 -11 -87 -16 -197 -28 -279 -30 -130 -5 -143 4 -30
19 94 13 137 63 125 144 -9 58 -37 87 -120 121 -38 16 -84 41 -102 56 -44 34
-43 56 7 325 22 118 45 262 53 320 l13 105 179 12 c410 26 757 37 1228 37 433
1 498 3 502 16 2 8 11 53 19 100 90 506 83 781 -39 1505 -24 143 -69 437 -100
653 -37 256 -65 420 -81 470 -31 97 -110 255 -146 294 -15 16 -26 31 -25 33 5
10 -82 112 -146 171 -258 238 -610 369 -1162 430 -169 18 -666 26 -855 13z
m15 -925 c39 -84 38 -84 27 -84 -8 0 -72 136 -72 153 0 21 14 0 45 -69z m323
-9 c-92 -34 -181 -122 -194 -191 -7 -36 -24 -57 -24 -29 0 51 58 137 132 195
38 31 58 40 86 39 l37 0 -37 -14z m141 -59 c48 -25 108 -102 130 -169 22 -65
28 -180 11 -207 -5 -8 -10 -13 -10 -10 0 3 -2 48 -3 100 -2 80 -7 103 -29 145
-32 62 -86 117 -138 140 -22 10 -40 22 -40 26 0 9 33 -1 79 -25z m-289 -2
c-14 -14 -36 -30 -49 -37 -14 -7 -31 -23 -37 -36 l-12 -24 -17 33 c-20 39 -16
44 55 69 77 27 88 26 60 -5z m-96 -198 c-6 -42 -7 -43 -46 -42 -33 1 -44 -4
-61 -26 -19 -25 -19 -30 -6 -65 11 -28 22 -40 46 -47 23 -7 31 -15 31 -33 0
-26 30 -66 43 -57 14 8 11 48 -5 69 -11 16 -11 22 2 45 l16 27 34 -23 c56 -38
141 -65 262 -82 108 -16 111 -17 55 -19 -33 -1 -162 -15 -287 -30 -164 -20
-231 -24 -239 -16 -21 21 -33 148 -22 231 12 93 33 141 86 196 l39 41 29 -63
c23 -50 27 -72 23 -106z m399 124 c35 -38 77 -109 77 -130 0 -22 -17 -8 -29
25 -7 19 -35 59 -63 90 -30 33 -44 55 -35 55 8 0 31 -18 50 -40z m-1933 -130
c0 -5 -5 -10 -11 -10 -5 0 -7 5 -4 10 3 6 8 10 11 10 2 0 4 -4 4 -10z m1567
-36 c4 -53 28 -83 88 -110 64 -29 146 -47 292 -65 59 -7 113 -16 118 -22 11
-10 -27 -6 -200 19 -154 22 -237 50 -287 97 -24 22 -28 34 -28 78 0 58 12 60
17 3z m-1227 -24 c0 -5 -5 -10 -11 -10 -5 0 -7 5 -4 10 3 6 8 10 11 10 2 0 4
-4 4 -10z m1142 -82 c21 -16 21 -18 4 -18 -29 0 -56 29 -56 60 0 40 14 46 22
9 3 -18 17 -41 30 -51z m-178 -75 c26 -14 28 -16 12 -25 -21 -12 -71 6 -61 22
4 6 -16 11 -52 11 -52 1 -54 2 -23 9 42 9 84 3 124 -17z m-168 2 c-3 -8 0 -15
7 -15 7 0 -19 -11 -56 -24 -38 -14 -80 -32 -95 -42 l-27 -17 19 22 c31 35 82
62 102 54 12 -4 15 -3 10 5 -4 8 2 16 16 21 31 13 31 13 24 -4z m50 -61 c-4
-10 0 -18 13 -21 16 -4 18 -9 11 -28 -5 -14 -5 -26 2 -33 13 -13 19 -74 6 -66
-12 7 -10 -14 4 -39 10 -20 9 -21 -5 -9 -13 11 -15 10 -10 -7 3 -12 10 -21 17
-21 6 0 4 -5 -4 -10 -12 -8 -13 -12 -2 -19 16 -10 15 -18 -4 -46 -17 -24 -18
-39 -1 -29 6 4 4 -2 -6 -14 -17 -19 -18 -23 -4 -43 14 -19 14 -24 1 -44 -10
-16 -12 -25 -4 -30 6 -3 8 -10 5 -15 -7 -12 17 -50 31 -50 15 0 25 -38 13 -46
-5 -3 -9 4 -9 14 0 14 -8 21 -30 24 -33 5 -38 -3 -15 -26 18 -18 19 -48 3 -64
-9 -9 -8 -12 5 -12 9 0 17 -4 17 -10 0 -5 -7 -10 -15 -10 -13 0 -14 -4 -4 -22
9 -17 9 -23 0 -26 -9 -3 -9 -7 -1 -18 7 -7 12 -34 12 -59 0 -27 4 -45 11 -45
9 0 9 -2 1 -8 -16 -10 -11 -61 6 -72 10 -6 11 -10 3 -10 -9 0 -11 -15 -7 -52
3 -29 6 -78 7 -110 1 -31 5 -52 8 -46 10 15 19 -5 14 -31 -2 -11 -7 -26 -10
-31 -3 -6 -1 -10 5 -10 7 0 9 -7 6 -16 -4 -10 1 -22 11 -30 12 -9 13 -13 5
-14 -10 0 -10 -5 -1 -21 8 -16 13 -18 19 -9 4 7 13 9 19 6 18 -12 2 -27 -24
-23 -34 4 -36 8 -51 89 -53 293 -56 318 -56 443 1 115 -19 464 -34 615 -8 83
-25 150 -37 151 -7 1 4 5 23 9 57 12 63 11 56 -6z m158 0 c9 -22 7 -74 -1 -73
-22 4 -32 -3 -36 -23 -2 -13 -5 4 -6 38 0 33 2 64 6 67 11 12 31 7 37 -9z
m-986 -5 c-2 -6 -8 -10 -13 -10 -5 0 -11 4 -13 10 -2 6 4 11 13 11 9 0 15 -5
13 -11z m1672 2 c0 -15 -29 -21 -108 -21 -106 -1 -197 -14 -358 -51 l-137 -32
-24 27 c-25 29 -30 51 -10 43 6 -2 93 6 192 18 183 23 445 32 445 16z m-924
-49 c1 -18 1 -19 -3 -2 -2 11 -8 20 -13 20 -9 0 -9 1 14 -235 8 -88 18 -223
21 -300 7 -172 7 -165 17 -159 4 3 8 -30 8 -73 0 -43 9 -130 20 -193 11 -63
20 -118 20 -121 0 -4 -12 -9 -27 -11 -16 -3 -35 -8 -44 -12 -24 -11 -70 241
-99 544 -6 63 -20 169 -30 235 -35 209 -23 300 40 322 50 17 75 13 76 -15z
m-138 -24 c-18 -34 -14 -162 10 -323 12 -77 29 -212 37 -300 17 -172 69 -453
91 -497 18 -35 18 -58 0 -33 -45 67 -85 267 -130 660 -51 439 -51 459 -18 498
21 24 25 21 10 -5z m392 -44 c0 -13 -5 -24 -11 -24 -5 0 -7 5 -4 10 3 6 -2 11
-12 11 -16 1 -16 2 -1 6 11 3 15 10 11 20 -4 11 -2 14 5 9 7 -4 12 -18 12 -32z
m-242 -35 c-3 -20 -5 -19 -9 9 -3 20 -2 29 4 23 5 -5 7 -19 5 -32z m928 25
c14 -4 21 -11 17 -20 -4 -11 -26 -12 -113 -7 -59 3 -116 3 -126 -1 -15 -6 -14
-10 13 -39 49 -51 210 -281 241 -344 43 -85 63 -174 67 -298 2 -60 0 -90 -3
-66 l-7 44 -88 1 c-98 1 -102 -1 -109 -64 -3 -32 -1 -35 37 -48 23 -8 66 -12
103 -10 34 2 62 1 61 -2 0 -3 -12 -61 -28 -130 -30 -140 -29 -139 -117 -125
l-44 6 25 37 c36 54 42 118 15 161 -12 18 -35 38 -51 45 -27 10 -30 14 -24 41
21 105 35 205 35 249 0 121 -55 340 -113 449 -36 68 -65 94 -116 103 -89 16
-53 23 118 23 101 1 194 -2 207 -5z m-309 -38 c46 -19 81 -65 114 -149 71
-180 96 -391 64 -547 -32 -162 -76 -323 -105 -387 -25 -55 -33 -64 -52 -61
-36 5 -36 62 0 145 42 96 58 158 83 318 25 165 22 270 -12 360 -45 122 -113
193 -215 225 -126 38 -240 21 -292 -45 -11 -14 -22 -25 -24 -25 -2 0 -1 30 3
66 8 78 25 100 89 114 73 15 298 6 347 -14z m304 -51 c3 -2 1 -27 -5 -54 -9
-45 -7 -55 11 -88 24 -44 63 -154 63 -180 0 -10 -16 10 -36 43 -20 34 -74 113
-120 175 -46 62 -84 115 -84 117 0 5 162 -8 171 -13z m-415 -66 c69 -26 110
-61 151 -131 63 -105 77 -229 48 -429 -21 -138 -39 -214 -65 -269 l-20 -45 4
50 c3 28 19 98 37 155 26 86 32 122 32 200 1 100 -7 140 -50 255 -65 175 -262
259 -372 159 -34 -30 -61 -73 -90 -144 -8 -22 -10 -17 -10 29 -1 92 48 166
127 192 40 13 145 1 208 -22z m-499 -21 c-3 -7 -5 -2 -5 12 0 14 2 19 5 13 2
-7 2 -19 0 -25z m459 -27 c93 -42 149 -116 183 -244 19 -70 29 -217 15 -217
-3 0 -34 20 -68 45 -86 61 -129 78 -208 78 l-66 1 4 28 c2 19 -1 26 -8 22 -7
-5 -9 3 -6 24 2 17 1 29 -3 27 -4 -3 -9 6 -11 20 -5 21 2 28 45 50 59 29 86
31 150 9 53 -18 88 -13 42 6 -52 21 -139 24 -189 7 -40 -14 -47 -14 -54 -1 -5
10 -15 12 -27 8 -17 -7 -16 -8 5 -16 22 -8 22 -9 -16 -42 -21 -19 -41 -32 -43
-30 -15 14 2 93 29 135 31 47 52 54 86 28 7 -6 16 1 24 19 34 67 50 73 116 43z
m-131 -7 c-11 -11 -13 -20 -6 -28 8 -10 3 -11 -19 -8 -36 5 -38 14 -7 35 30
22 54 22 32 1z m-1340 -14 c3 -5 1 -10 -4 -10 -6 0 -11 5 -11 10 0 6 2 10 4
10 3 0 8 -4 11 -10z m1022 -87 c-2 -16 -4 -3 -4 27 0 30 2 43 4 28 2 -16 2
-40 0 -55z m163 -123 c0 -5 -2 -10 -4 -10 -3 0 -8 5 -11 10 -3 6 -1 10 4 10 6
0 11 -4 11 -10z m71 -9 c-23 -17 -23 -19 -5 -29 14 -8 16 -13 7 -24 -8 -9 -9
-19 -3 -28 14 -21 12 -28 -7 -32 -15 -3 -15 -5 -2 -18 22 -22 22 -60 1 -54
-15 5 -15 4 1 -9 9 -8 17 -17 17 -20 0 -3 -8 -8 -17 -10 -14 -4 -12 -5 5 -6
28 -1 29 -17 1 -24 l-21 -6 20 -21 c11 -12 19 -29 17 -38 -1 -9 2 -27 6 -39 7
-19 5 -23 -14 -24 l-22 -2 23 -4 c23 -5 31 -23 10 -23 -8 0 -9 -3 -3 -8 12 -8
13 -32 2 -49 -4 -7 -5 -26 -2 -42 3 -17 1 -31 -4 -31 -17 0 -6 -35 17 -57 15
-14 21 -27 16 -35 -6 -10 -4 -10 9 1 9 7 17 26 17 41 0 16 7 30 15 34 16 6 21
61 6 70 -5 4 -7 -4 -4 -16 4 -21 3 -21 -7 -5 -10 16 -7 24 16 48 55 57 145 45
219 -31 42 -43 44 -60 29 -183 l-6 -47 -21 32 c-36 52 -71 71 -137 76 -38 3
-60 1 -60 -6 0 -6 21 -11 49 -10 49 0 81 -11 114 -40 28 -25 19 -33 -15 -12
-27 15 -51 19 -125 18 -51 -1 -90 -4 -88 -6 5 -5 -25 -31 -37 -32 -4 0 -10 26
-14 58 -3 31 -9 62 -13 67 -13 23 -9 65 8 66 14 1 13 2 -1 6 -20 5 -24 28 -8
38 15 9 12 25 -4 19 -11 -4 -14 4 -13 35 1 23 -1 41 -5 41 -5 0 -8 7 -8 16 0
8 3 13 8 10 4 -2 6 12 5 32 -7 107 -9 310 -2 307 4 -3 12 2 19 10 7 8 18 15
24 15 6 0 0 -9 -13 -19z m-224 -28 c-3 -10 -5 -4 -5 12 0 17 2 24 5 18 2 -7 2
-21 0 -30z m0 -95 c-2 -13 -4 -5 -4 17 -1 22 1 32 4 23 2 -10 2 -28 0 -40z
m474 -14 c50 -25 159 -107 159 -118 0 -6 -12 -66 -27 -134 l-27 -123 -25 32
c-13 17 -43 40 -65 50 -44 20 -126 25 -155 9 -16 -8 -17 -6 -13 17 3 18 -1 30
-13 40 -12 8 -14 13 -6 13 8 0 11 8 8 20 -3 11 -1 18 3 15 5 -3 9 20 9 50 0
30 -5 55 -10 55 -5 0 -9 5 -9 11 0 5 5 7 11 4 6 -4 5 2 -2 13 -10 16 -10 26
-1 48 12 26 15 27 73 21 33 -4 73 -14 90 -23z m505 -201 c7 -39 2 -49 -33 -56
-32 -6 -143 12 -143 23 0 4 3 21 6 37 l6 29 79 -1 79 0 6 -32z m-146 -132 c39
-73 -30 -194 -122 -216 -42 -11 -34 10 14 37 54 30 88 79 88 129 0 38 -26 79
-51 79 -5 0 -7 4 -4 10 8 13 61 -15 75 -39z m-974 -61 c-19 -97 -20 -146 -5
-205 14 -55 58 -100 92 -91 27 7 37 25 62 121 20 79 31 97 41 70 9 -23 -20
-147 -50 -212 -28 -58 -54 -73 -91 -49 -62 40 -96 185 -76 317 12 81 30 144
38 136 2 -3 -3 -42 -11 -87z m936 44 c18 -38 -7 -102 -51 -131 -19 -13 -36
-22 -38 -20 -1 2 7 43 19 90 18 68 27 87 41 87 9 0 23 -12 29 -26z m-682 -4
c0 -5 -5 -10 -11 -10 -5 0 -7 5 -4 10 3 6 8 10 11 10 2 0 4 -4 4 -10z m-243
-117 c-3 -10 -5 -2 -5 17 0 19 2 27 5 18 2 -10 2 -26 0 -35z m180 21 c2 -7 -6
-10 -22 -6 -21 3 -27 0 -32 -17 -3 -11 -9 -21 -14 -21 -11 0 -12 44 -2 54 11
11 66 3 70 -10z m-58 -120 c-24 -90 -34 -106 -62 -102 -30 4 -58 49 -62 99 -4
42 -4 43 4 7 8 -40 36 -88 51 -88 15 0 37 39 61 106 13 35 24 62 26 60 2 -2
-6 -39 -18 -82z m91 10 c0 -8 -4 -14 -10 -14 -5 0 -10 9 -10 21 0 11 5 17 10
14 6 -3 10 -13 10 -21z m363 15 c21 -5 53 -24 72 -41 38 -32 45 -66 24 -112
l-11 -24 -51 36 c-48 34 -57 37 -119 36 -62 0 -68 1 -69 20 -1 17 -2 18 -6 4
-4 -17 -25 -27 -21 -10 0 4 -2 15 -7 26 -6 14 -2 23 16 37 46 36 108 46 172
28z m451 -5 l47 -7 -3 -41 -3 -41 -182 -3 c-164 -2 -183 -1 -183 14 0 12 7 15
28 11 19 -4 34 1 50 16 51 47 138 65 246 51z m-657 -102 c1 -39 -1 -43 -9 -22
-7 20 -4 70 5 70 1 0 3 -21 4 -48z m-24 -54 c10 -51 20 -106 23 -122 3 -16 11
-44 19 -63 12 -29 12 -40 1 -73 -7 -22 -10 -37 -5 -34 5 3 9 1 9 -5 0 -5 -7
-14 -15 -18 -12 -7 -10 -13 11 -36 18 -19 21 -27 10 -27 -8 0 -18 -5 -22 -12
-4 -6 -3 -8 3 -5 6 4 13 0 17 -8 3 -9 0 -15 -9 -15 -8 0 -15 -5 -15 -11 0 -6
9 -8 21 -4 19 6 20 4 13 -29 -5 -28 -3 -35 7 -33 8 2 11 2 7 0 -12 -7 -9 -33
3 -33 6 0 9 -7 5 -15 -3 -8 -1 -15 4 -15 21 0 9 -20 -15 -26 -30 -7 -32 -20
-5 -27 14 -3 20 -14 20 -31 0 -14 -4 -26 -10 -26 -5 0 2 -12 16 -27 30 -33 27
-47 -13 -51 -35 -3 -34 -6 -74 143 -63 232 -76 350 -59 516 14 148 19 179 28
179 4 0 15 -42 25 -92z m77 48 c0 -2 -7 -9 -15 -16 -12 -10 -15 -10 -15 4 0 9
7 16 15 16 8 0 15 -2 15 -4z m556 -34 c-2 -15 -8 -49 -11 -77 -3 -27 -22 -111
-40 -185 -48 -189 -48 -189 -35 -349 13 -165 0 -396 -30 -547 -25 -128 -101
-364 -119 -373 -29 -15 -101 -24 -101 -12 0 6 12 11 26 11 14 0 23 4 19 10 -3
6 -15 10 -26 10 -22 0 -25 21 -6 51 9 17 9 23 0 26 -10 4 -10 9 1 25 11 15 12
27 5 45 -12 32 -12 33 5 27 8 -3 17 -1 21 5 3 6 -1 11 -9 11 -8 0 -20 9 -26
20 -9 16 -8 20 6 20 9 0 23 8 30 18 10 14 10 20 -3 35 -15 16 -15 17 4 17 22
0 27 26 9 49 -8 11 -8 13 2 7 6 -4 12 -2 12 3 0 6 -5 11 -11 11 -7 0 -9 11 -4
33 4 17 8 51 9 75 2 41 5 45 49 69 63 35 60 50 -3 17 -28 -15 -54 -24 -57 -20
-4 3 -1 6 5 6 7 0 12 5 12 11 0 6 -9 8 -20 4 -11 -4 -20 -2 -20 4 0 6 8 11 18
12 16 0 16 1 0 7 -16 6 -16 10 -4 33 18 35 10 82 -13 75 -11 -4 -10 -2 3 9 14
11 16 15 5 15 -9 0 -10 3 -4 8 13 8 17 52 6 52 -5 0 -8 11 -8 25 0 14 3 25 8
25 5 0 9 4 9 10 0 5 -6 7 -14 4 -11 -4 -13 5 -9 50 3 40 1 56 -7 56 -9 0 -9 4
1 17 10 11 10 14 2 9 -9 -5 -13 -1 -13 13 0 11 5 23 10 26 8 5 7 11 -1 21 -9
11 -8 14 2 14 8 0 6 5 -6 13 -12 10 -14 16 -7 21 17 10 15 26 -3 26 -18 0 -20
17 -2 23 9 3 8 8 -3 22 -10 13 -11 16 -2 11 10 -6 12 0 7 26 -5 25 -2 38 9 47
24 20 28 69 12 151 -12 62 -12 76 -1 83 8 4 18 22 24 40 l11 32 141 -3 140 -3
-5 -27z m90 -49 c7 -87 -2 -458 -15 -583 -5 -56 -9 -65 -27 -68 -25 -4 -37 25
-22 52 11 20 1 57 -20 72 -15 11 -25 54 -12 54 4 0 2 21 -5 47 -14 54 -35 70
-35 26 0 -16 -6 -35 -12 -42 -10 -10 -10 -12 -1 -7 9 5 11 -2 8 -24 -2 -18 1
-30 8 -30 8 0 8 -3 -1 -9 -10 -6 -12 -25 -8 -72 4 -38 2 -58 -3 -49 -4 8 -11
68 -14 133 -6 114 -5 125 33 277 21 87 42 189 46 228 7 72 10 78 56 81 13 1
17 -14 24 -86z m-489 57 c18 -10 39 -30 48 -43 19 -29 41 -176 31 -203 -6 -15
-15 -5 -44 56 -58 118 -98 91 -47 -32 14 -35 28 -70 31 -78 9 -25 -56 53 -77
92 -19 37 -39 57 -39 40 0 -5 22 -44 50 -85 27 -42 45 -79 40 -82 -13 -8 -100
103 -107 136 -4 20 -10 26 -22 22 -14 -4 -14 -3 2 10 19 16 22 27 6 27 -20 0
-38 -27 -33 -51 3 -20 2 -19 -10 6 -18 36 -21 69 -5 59 7 -4 9 10 4 48 -7 52
-5 56 20 77 36 28 108 28 152 1z m-190 -97 c-3 -10 -5 -4 -5 12 0 17 2 24 5
18 2 -7 2 -21 0 -30z m196 -93 c-7 -8 -23 24 -22 45 0 15 3 13 13 -10 7 -16
11 -32 9 -35z m-133 -66 c-1 -4 2 -10 7 -13 4 -3 17 -16 27 -29 16 -18 17 -22
4 -17 -9 4 -28 24 -42 46 -29 44 -34 58 -11 35 9 -8 15 -18 15 -22z m177 -56
c-3 -8 -6 -5 -6 6 -1 11 2 17 5 13 3 -3 4 -12 1 -19z m-217 -38 c0 -5 -5 -10
-11 -10 -5 0 -7 5 -4 10 3 6 8 10 11 10 2 0 4 -4 4 -10z m132 -27 c10 -9 18
-22 18 -30 0 -7 4 -13 9 -13 5 0 12 -16 15 -35 4 -19 14 -39 24 -44 16 -10 16
-10 -1 -11 -14 0 -16 -5 -11 -25 5 -21 3 -24 -12 -18 -13 5 -15 3 -9 -8 5 -8
17 -20 27 -27 18 -13 17 -14 -4 -33 -13 -12 -17 -18 -10 -14 7 4 12 -1 12 -11
0 -13 3 -15 11 -7 12 12 39 7 39 -8 0 -5 -9 -9 -21 -9 -11 0 -18 -4 -14 -9 3
-5 -4 -12 -15 -16 -21 -7 -28 -35 -9 -35 8 0 8 -4 0 -14 -9 -11 -5 -15 21 -21
l33 -8 -30 -5 c-31 -4 -58 19 -49 43 3 7 1 22 -5 32 -5 11 -11 50 -13 86 -2
37 -7 67 -12 67 -4 0 -6 9 -3 20 3 11 1 20 -3 20 -5 0 -7 21 -6 48 2 26 -1 59
-5 75 -9 31 -3 34 23 10z m63 -23 c3 -5 1 -10 -4 -10 -6 0 -11 5 -11 10 0 6 2
10 4 10 3 0 8 -4 11 -10z m-95 -100 c0 -5 -2 -10 -4 -10 -3 0 -8 5 -11 10 -3
6 -1 10 4 10 6 0 11 -4 11 -10z m-50 -130 c0 -5 -4 -10 -10 -10 -5 0 -10 5
-10 10 0 6 5 10 10 10 6 0 10 -4 10 -10z m576 -167 c-11 -111 -47 -367 -53
-373 -2 -3 -26 -5 -51 -4 -28 1 -39 -2 -28 -6 19 -6 18 -7 -3 -13 -13 -3 -20
-10 -16 -16 3 -6 11 -9 16 -6 5 4 9 1 9 -4 0 -6 -6 -11 -14 -11 -14 0 -27 -22
-25 -43 0 -7 5 -1 11 13 9 23 11 24 17 5 7 -16 9 -14 14 13 6 30 48 64 63 50
5 -6 -42 -264 -52 -279 -3 -5 -21 -9 -40 -9 -22 0 -37 -6 -40 -15 -4 -8 -17
-15 -30 -15 -13 0 -24 -4 -24 -10 0 -5 9 -10 19 -10 11 0 23 -4 26 -10 3 -6
-5 -10 -19 -10 -13 0 -31 -2 -38 -5 -9 -4 4 48 38 151 28 86 58 189 65 230 11
64 16 74 33 74 20 -1 20 -1 4 -14 -10 -7 -18 -18 -18 -24 0 -5 8 -8 18 -6 11
4 17 15 17 37 1 18 4 49 8 69 7 31 5 37 -13 43 -17 5 -20 15 -20 63 0 61 12
96 23 68 3 -8 3 -18 -2 -20 -16 -10 -10 -74 9 -96 11 -13 20 -28 21 -34 1 -20
18 46 24 98 4 28 9 55 12 59 3 4 -1 15 -9 24 -7 9 -8 14 -2 10 8 -5 13 6 16
33 3 31 0 40 -12 41 -10 0 -9 3 5 9 45 19 48 14 41 -57z m-104 17 c3 -17 1
-33 -4 -36 -4 -3 -8 11 -8 30 0 44 6 47 12 6z m-482 -14 c0 -19 -14 -34 -27
-29 -11 4 -14 2 -11 -8 3 -9 16 -13 34 -12 16 1 23 0 16 -3 -6 -3 -10 -9 -7
-14 3 -4 -8 -13 -24 -18 -29 -10 -29 -10 -33 35 -2 24 -1 46 1 49 6 5 51 5 51
0z m158 -15 c10 -6 7 -10 -12 -13 -14 -3 -23 -2 -21 3 3 4 -7 10 -22 12 -24 3
-23 4 7 5 19 1 41 -2 48 -7z m10 -48 c-18 -4 -26 -23 -10 -23 4 0 13 -9 19
-19 10 -16 9 -18 -8 -14 -10 3 -19 0 -19 -6 0 -6 5 -11 11 -11 5 0 7 -5 4 -10
-12 -19 -32 8 -30 40 1 16 -3 30 -9 30 -6 0 -4 5 4 10 8 5 24 9 35 9 17 -1 17
-2 3 -6z m-148 -53 c10 -6 11 -10 3 -10 -7 0 -13 -5 -13 -11 0 -6 7 -9 15 -5
22 8 18 -2 -5 -14 -15 -8 -20 -8 -18 1 2 6 -2 13 -9 16 -7 3 -9 -3 -6 -17 3
-12 12 -24 20 -27 12 -5 12 -7 1 -14 -9 -6 -10 -11 -2 -16 6 -5 10 -16 8 -25
-1 -10 2 -18 7 -18 15 0 10 -19 -8 -28 -10 -6 -33 -13 -51 -17 l-33 -7 7 89
c4 62 11 92 22 101 19 14 41 15 62 2z m140 -99 c0 -6 -4 -13 -10 -16 -5 -3
-10 1 -10 9 0 9 5 16 10 16 6 0 10 -4 10 -9z m311 -56 c5 4 9 2 9 -3 0 -6 -7
-12 -15 -16 -12 -4 -15 3 -13 37 1 37 2 38 5 9 2 -18 9 -30 14 -27z m-301 -45
c0 -5 -5 -10 -11 -10 -5 0 -7 5 -4 10 3 6 8 10 11 10 2 0 4 -4 4 -10z m-166
-22 c-19 -21 -19 -21 4 -16 12 4 20 2 16 -3 -3 -5 -13 -9 -22 -9 -16 -1 -16
-1 0 -13 16 -13 18 -44 3 -80 -6 -14 -3 -16 11 -11 18 5 18 5 1 -6 -10 -6 -25
-9 -33 -6 -8 3 -14 1 -14 -4 0 -6 9 -10 21 -10 11 0 17 -4 14 -10 -3 -5 -1
-10 4 -10 6 0 11 -5 11 -11 0 -6 -7 -9 -14 -6 -10 4 -13 1 -9 -9 3 -9 0 -12
-9 -9 -8 3 -21 -2 -28 -12 -12 -15 -12 -16 0 -5 8 6 18 12 22 12 14 0 9 -50
-8 -75 -9 -14 -13 -25 -10 -25 4 0 2 -8 -3 -18 -9 -17 -6 -19 20 -20 53 -1 45
-12 -9 -12 -72 0 -82 6 -82 48 0 58 31 295 41 314 5 9 24 19 42 21 17 2 36 5
41 5 5 1 1 -8 -10 -20z m176 -239 c0 -5 -4 -7 -10 -4 -13 8 -13 -11 1 -37 9
-16 8 -19 -3 -15 -7 2 -12 10 -10 16 1 6 -2 11 -7 11 -6 0 -9 9 -8 20 1 20 37
30 37 9z m-170 -54 c0 -2 -9 -9 -20 -15 -16 -9 -18 -8 -14 5 5 13 34 22 34 10z
m118 -40 c-3 -33 -16 -33 -14 0 0 14 4 25 8 25 4 0 7 -11 6 -25z m37 -24 c7
-12 -55 -25 -82 -18 -10 3 -5 5 14 6 17 0 35 6 38 11 8 13 22 13 30 1z m305
-21 c0 -22 -33 -27 -60 -10 -12 7 -10 11 10 19 38 15 50 13 50 -9z m-528 -10
c40 0 30 -11 -11 -12 -17 -1 -31 -5 -31 -10 0 -4 -4 -8 -10 -8 -5 0 -10 9 -10
21 0 15 4 19 16 15 9 -3 30 -6 46 -6z m238 -30 c0 -5 -7 -10 -15 -10 -8 0 -15
5 -15 10 0 6 7 10 15 10 8 0 15 -4 15 -10z m288 -5 c9 -8 -1 -12 -48 -19 -39
-5 -43 -4 -28 8 10 7 14 17 10 21 -7 8 58 -2 66 -10z m-355 -2 c-7 -2 -19 -2
-25 0 -7 3 -2 5 12 5 14 0 19 -2 13 -5z m-191 -25 c19 -19 19 -19 -13 -16 -20
2 -33 9 -34 19 -4 22 24 20 47 -3z m368 13 c0 -31 -14 -41 -59 -41 -52 0 -91
9 -91 20 0 4 28 12 63 17 86 14 87 14 87 4z m331 -119 c70 -32 88 -45 99 -71
7 -19 9 -36 4 -41 -10 -8 -153 -40 -184 -40 -13 0 -18 6 -15 20 2 11 0 20 -5
20 -5 0 -17 16 -26 35 -9 19 -20 32 -25 30 -4 -3 -15 8 -24 25 -10 20 -22 30
-31 26 -8 -3 -13 0 -11 7 1 7 -4 11 -11 9 -8 -1 -11 2 -7 8 3 5 3 10 -2 10 -4
0 -13 11 -20 25 -10 22 -9 26 10 30 68 15 92 11 127 -21 19 -18 74 -50 121
-72z m-303 61 c5 -53 8 -63 28 -77 10 -8 16 -18 12 -22 -11 -11 -68 56 -68 80
0 17 16 46 25 46 0 0 2 -12 3 -27z m-46 -29 c9 -37 60 -84 126 -118 26 -13 54
-32 63 -42 16 -19 35 -64 26 -64 -2 0 -64 -11 -137 -25 -117 -22 -228 -33
-192 -18 6 2 12 9 12 14 0 6 -4 7 -10 4 -16 -10 -12 11 5 25 15 12 15 55 1 78
-4 7 -2 12 5 12 8 0 6 6 -4 18 -10 10 -14 21 -11 24 3 4 7 22 8 41 3 30 0 34
-17 29 -17 -4 -18 -2 -8 17 9 16 9 21 -1 22 -23 3 66 17 96 15 25 -1 31 -7 38
-32z m-345 -40 c1 -36 7 -72 13 -79 6 -7 12 -35 14 -62 2 -27 9 -59 15 -71 11
-20 9 -22 -14 -22 -33 0 -46 33 -51 119 -4 72 5 181 15 181 3 0 7 -30 8 -66z
m803 -144 c0 -24 -31 -57 -66 -70 -34 -13 -107 -13 -121 1 -16 16 -4 48 21 54
30 7 150 33 159 34 4 1 7 -8 7 -19z m-1025 -69 c-3 -5 3 -12 12 -14 10 -3 0
-5 -22 -5 -22 0 -32 2 -22 5 9 2 17 9 17 14 0 5 5 9 11 9 5 0 8 -4 4 -9z m793
-23 c3 -22 -1 -28 -20 -32 -138 -26 -268 -44 -291 -39 -22 4 -27 10 -25 27 2
17 13 23 53 30 28 5 88 17 135 27 116 24 144 22 148 -13z m-675 5 c-13 -2 -33
-2 -45 0 -13 2 -3 4 22 4 25 0 35 -2 23 -4z m86 -34 c-19 -12 -29 -11 -29 2 0
5 5 7 10 4 6 -3 10 -1 10 5 0 6 5 8 11 4 8 -4 7 -9 -2 -15z m-282 5 c-3 -3
-12 -4 -19 -1 -8 3 -5 6 6 6 11 1 17 -2 13 -5z m373 -15 c11 -20 11 -20 -19
-4 -36 18 -39 25 -11 25 10 0 24 -9 30 -21z"/>
<path d="M1570 4006 c0 -2 8 -10 18 -17 15 -13 16 -12 3 4 -13 16 -21 21 -21
13z"/>
<path d="M1636 3906 c10 -8 21 -12 24 -10 5 6 -21 24 -34 24 -6 0 -1 -6 10
-14z"/>
<path d="M2394 3543 c3 -16 11 -98 17 -183 9 -137 13 -157 31 -173 16 -13 30
-16 57 -11 20 4 41 11 47 16 20 15 22 58 8 127 -30 146 -89 251 -141 251 -22
0 -25 -3 -19 -27z m82 -48 c47 -82 87 -252 66 -283 -13 -20 -87 -28 -98 -11
-5 8 -11 73 -15 144 -4 72 -10 150 -14 174 -8 42 -7 43 13 32 12 -6 33 -31 48
-56z"/>
<path d="M1817 3604 c-8 -9 15 -44 30 -44 6 0 15 5 19 12 5 7 2 9 -9 5 -8 -3
-18 0 -21 8 -3 9 3 15 17 18 19 4 19 4 -4 6 -14 0 -28 -2 -32 -5z"/>
<path d="M1795 3130 c-3 -6 1 -7 9 -4 18 7 21 14 7 14 -6 0 -13 -4 -16 -10z"/>
<path d="M1805 2440 c-3 -5 1 -10 10 -10 9 0 13 5 10 10 -3 6 -8 10 -10 10 -2
0 -7 -4 -10 -10z"/>
<path d="M1808 2403 c7 -3 16 -2 19 1 4 3 -2 6 -13 5 -11 0 -14 -3 -6 -6z"/>
<path d="M1830 2366 c0 -8 -6 -17 -12 -19 -10 -4 -10 -6 -1 -6 7 -1 17 8 23
19 7 14 7 20 0 20 -5 0 -10 -6 -10 -14z"/>
<path d="M1840 2100 c0 -11 4 -20 9 -20 5 0 7 9 4 20 -3 11 -7 20 -9 20 -2 0
-4 -9 -4 -20z"/>
<path d="M1880 2587 c0 -15 0 -30 -1 -34 0 -4 5 -9 11 -11 8 -3 10 6 6 28 -6
41 -16 51 -16 17z"/>
<path d="M1890 2508 c0 -12 3 -18 7 -14 11 10 12 36 2 36 -5 0 -9 -10 -9 -22z"/>
<path d="M2352 1300 c0 -14 2 -19 5 -12 2 6 2 18 0 25 -3 6 -5 1 -5 -13z"/>
<path d="M2323 1263 c13 -3 16 -11 12 -26 -5 -17 -4 -19 4 -7 17 24 13 40 -11
39 -18 -1 -19 -2 -5 -6z"/>
<path d="M2299 1222 c-28 -30 -30 -51 -7 -63 16 -9 19 -8 13 2 -6 9 -3 11 8 6
10 -3 17 -2 17 3 0 5 -8 11 -17 13 -17 4 -17 5 0 6 9 0 17 6 17 12 0 5 -5 7
-11 3 -8 -4 -9 0 -4 15 8 25 5 25 -16 3z"/>
<path d="M1847 1213 c3 -7 9 -13 13 -13 4 0 10 6 13 13 3 7 -3 13 -13 13 -10
0 -16 -6 -13 -13z"/>
<path d="M4105 1703 c-22 -3 -44 -9 -50 -15 -7 -7 2 -9 30 -4 22 3 100 6 173
6 81 0 132 4 132 10 0 10 -196 12 -285 3z"/>
<path d="M2838 1643 c-10 -2 -18 -9 -18 -15 0 -6 10 -8 23 -4 12 3 72 6 132 6
75 0 105 3 95 10 -15 10 -198 12 -232 3z"/>
<path d="M4168 1623 c-45 -7 -32 -21 15 -16 23 3 73 1 110 -4 37 -6 70 -6 73
-2 8 14 -144 31 -198 22z"/>
<path d="M3698 1504 c-16 -15 3 -19 64 -14 95 8 148 2 141 -16 -3 -7 -9 -14
-15 -14 -5 0 -6 5 -3 10 3 6 1 10 -4 10 -6 0 -11 -5 -11 -10 0 -6 -16 -8 -42
-4 -28 5 -39 4 -34 -4 3 -6 2 -13 -4 -17 -5 -3 -10 -11 -10 -16 0 -6 4 -8 9
-4 5 3 12 1 16 -5 3 -5 15 -10 27 -10 11 0 22 -8 25 -20 5 -20 23 -28 23 -11
0 5 19 7 43 5 23 -2 36 -1 30 2 -28 13 -12 26 23 19 36 -6 36 -6 32 24 -4 25
-1 31 13 31 22 0 51 -28 46 -44 -15 -46 -411 -87 -660 -67 -70 6 -92 12 -109
28 l-20 21 26 17 c40 27 151 54 244 62 119 9 105 27 -16 21 -227 -13 -338 -91
-219 -155 28 -15 64 -17 267 -18 247 0 351 11 447 47 65 24 78 51 39 84 -14
13 -43 28 -64 35 -42 13 -293 25 -304 13z m249 -30 c-3 -3 -12 -4 -19 -1 -8 3
-5 6 6 6 11 1 17 -2 13 -5z m-17 -74 c0 -5 -7 -10 -15 -10 -8 0 -15 5 -15 10
0 6 7 10 15 10 8 0 15 -4 15 -10z"/>
<path d="M1255 1450 c-55 -4 -129 -13 -165 -19 -96 -18 -293 -70 -304 -81 -18
-18 3 -23 36 -7 99 46 421 97 616 97 48 0 82 4 82 10 0 11 -110 11 -265 0z"/>
<path d="M3748 1445 c-3 -3 -21 -6 -40 -7 -29 -1 -34 -4 -31 -19 3 -11 9 -16
14 -13 5 3 17 -3 27 -13 9 -10 14 -14 10 -9 -13 17 -9 36 7 30 8 -4 15 -1 15
6 0 6 5 8 10 5 6 -3 10 1 10 9 0 16 -12 21 -22 11z"/>
<path d="M3580 1414 c-8 -10 -10 -15 -4 -11 6 4 19 -2 29 -13 14 -15 15 -20 4
-20 -12 0 -12 -2 0 -9 17 -11 42 16 34 36 -3 7 0 13 6 13 6 0 11 5 11 10 0 6
-9 10 -21 10 -11 0 -17 -4 -14 -10 3 -5 0 -10 -9 -10 -8 0 -16 5 -18 11 -2 7
-10 4 -18 -7z"/>
<path d="M3311 1406 c-13 -16 10 -41 31 -33 8 3 5 6 -6 6 -15 1 -16 4 -7 15 7
8 8 17 3 20 -6 3 -15 0 -21 -8z"/>
<path d="M3470 1411 c0 -6 4 -13 10 -16 6 -3 7 1 4 9 -7 18 -14 21 -14 7z"/>
<path d="M3355 1401 c-3 -5 0 -13 6 -17 8 -4 9 -3 5 4 -9 16 19 16 43 0 21
-13 51 -5 51 14 0 9 -3 9 -10 -2 -7 -10 -13 -11 -17 -5 -10 14 -70 18 -78 6z"/>
<path d="M4107 1391 c-7 -27 -73 -59 -175 -82 -67 -16 -130 -21 -272 -24 -301
-5 -409 12 -429 68 -8 20 -9 20 -26 -13 -10 -19 -26 -46 -37 -59 -31 -41 -8
-38 26 2 l32 39 35 -20 c54 -31 89 -35 338 -36 l234 -1 11 -38 c13 -48 27 -40
16 9 -6 24 -5 36 3 39 7 2 47 11 89 20 42 9 97 26 122 39 l46 23 31 -49 c42
-70 49 -52 9 24 -41 78 -46 84 -53 59z"/>
<path d="M3810 1396 c0 -2 8 -10 18 -17 15 -13 16 -12 3 4 -13 16 -21 21 -21
13z"/>
<path d="M3761 1374 c0 -11 3 -14 6 -6 3 7 2 16 -1 19 -3 4 -6 -2 -5 -13z"/>
<path d="M3487 1369 c7 -7 15 -10 18 -7 3 3 -2 9 -12 12 -14 6 -15 5 -6 -5z"/>
<path d="M150 1268 c-50 -11 -76 -28 -43 -28 35 0 123 23 123 32 0 10 -21 9
-80 -4z"/>
<path d="M568 1163 c-10 -2 -18 -9 -18 -14 0 -12 47 -12 55 1 4 6 -1 7 -11 3
-12 -4 -15 -3 -10 5 4 7 6 11 4 11 -2 -1 -11 -3 -20 -6z"/>
<path d="M280 1150 c-14 -4 -35 -5 -47 -3 -13 3 -29 -2 -39 -12 -12 -11 -26
-15 -46 -11 -23 5 -28 2 -28 -15 0 -18 4 -20 43 -14 95 14 195 20 190 12 -3
-5 3 -7 13 -3 11 3 30 7 44 10 14 2 36 9 50 14 19 7 8 9 -48 8 -51 -1 -72 3
-72 12 0 13 -21 14 -60 2z"/>
<path d="M478 1153 c12 -2 22 -9 22 -14 0 -5 7 -9 16 -9 32 0 6 25 -27 27 -19
0 -24 -1 -11 -4z"/>
<path d="M660 1125 c20 -24 4 -44 -52 -69 -80 -36 -237 -71 -251 -57 -16 16
-32 14 -18 -3 9 -11 -5 -17 -79 -32 -50 -11 -90 -24 -89 -29 3 -12 12 -11 184
26 190 41 293 77 318 110 21 30 16 69 -10 69 -13 0 -13 -3 -3 -15z"/>
<path d="M555 1100 c-8 -13 5 -13 25 0 13 8 13 10 -2 10 -9 0 -20 -4 -23 -10z"/>
<path d="M631 1094 c0 -11 3 -14 6 -6 3 7 2 16 -1 19 -3 4 -6 -2 -5 -13z"/>
<path d="M710 1097 c0 -37 75 -161 92 -151 5 3 3 13 -5 22 -8 10 -31 46 -51
82 -20 36 -36 57 -36 47z"/>
<path d="M280 1081 l-35 -7 31 -5 c18 -3 35 0 43 8 6 7 8 12 4 12 -4 -1 -24
-5 -43 -8z"/>
<path d="M380 1079 c0 -5 9 -9 20 -9 11 0 20 2 20 4 0 2 -9 6 -20 9 -11 3 -20
1 -20 -4z"/>
<path d="M468 1083 c-16 -2 -28 -8 -28 -13 0 -12 48 -6 62 8 7 7 8 11 3 11 -6
-1 -22 -4 -37 -6z"/>
<path d="M168 1062 c9 -10 22 -17 28 -15 6 2 17 -3 24 -12 7 -8 17 -15 23 -15
5 0 3 8 -5 18 -9 9 -18 24 -21 32 -3 9 -6 10 -6 3 -1 -15 -31 -18 -31 -3 0 6
-7 10 -15 10 -12 0 -12 -3 3 -18z"/>
<path d="M520 1070 c0 -5 -7 -10 -15 -10 -8 0 -15 -4 -15 -9 0 -18 18 -21 51
-7 31 13 31 14 11 25 -26 14 -32 14 -32 1z"/>
<path d="M460 1049 c0 -6 -8 -18 -17 -26 -16 -13 -16 -13 3 -4 12 6 24 7 28 4
3 -3 6 1 6 10 0 9 -4 19 -10 22 -5 3 -10 1 -10 -6z"/>
<path d="M140 1040 c0 -5 5 -10 10 -10 6 0 10 5 10 10 0 6 -4 10 -10 10 -5 0
-10 -4 -10 -10z"/>
<path d="M684 1025 c-24 -19 -176 -66 -363 -114 -80 -21 -141 -40 -135 -43 11
-7 210 41 349 84 109 33 175 63 175 78 0 13 -3 13 -26 -5z"/>
<path d="M386 1015 c-3 -8 -1 -15 4 -15 13 0 22 18 11 24 -5 3 -11 -1 -15 -9z"/>
<path d="M145 1010 c-3 -5 -1 -10 4 -10 6 0 11 5 11 10 0 6 -2 10 -4 10 -3 0
-8 -4 -11 -10z"/>
<path d="M170 1010 c0 -5 5 -10 10 -10 6 0 10 5 10 10 0 6 -4 10 -10 10 -5 0
-10 -4 -10 -10z"/>
<path d="M1183 823 c4 -6 39 -13 79 -17 40 -4 107 -11 148 -17 76 -10 343 0
356 14 14 14 -3 15 -121 7 -110 -7 -240 -2 -404 16 -42 4 -62 3 -58 -3z"/>
<path d="M3035 819 c-16 -5 -92 -14 -168 -21 -89 -8 -130 -15 -117 -20 25 -9
236 7 292 23 21 5 38 14 38 19 0 12 -5 11 -45 -1z"/>
<path d="M3940 803 c0 -21 173 -33 185 -13 4 6 -18 10 -58 10 -36 0 -79 3 -96
6 -18 4 -31 2 -31 -3z"/>
<path d="M1350 723 c0 -7 7 -10 15 -7 8 4 15 1 15 -5 0 -9 5 -9 20 -1 11 6 18
15 15 21 -9 14 -65 7 -65 -8z"/>
<path d="M528 724 c-42 -13 -10 -19 95 -19 61 0 138 -4 170 -8 62 -8 81 7 20
16 -57 9 -265 17 -285 11z"/>
<path d="M1295 700 c3 -5 11 -10 16 -10 6 0 7 5 4 10 -3 6 -11 10 -16 10 -6 0
-7 -4 -4 -10z"/>
<path d="M1570 646 c0 -11 40 -26 54 -20 26 10 18 20 -19 22 -19 2 -35 0 -35
-2z"/>
<path d="M1723 643 c9 -2 25 -2 35 0 9 3 1 5 -18 5 -19 0 -27 -2 -17 -5z"/>
<path d="M621 529 c-73 -4 -136 -11 -139 -14 -14 -14 17 -15 155 -5 241 17
423 -20 423 -85 0 -17 -76 -75 -98 -75 -9 0 -12 3 -9 6 3 4 1 16 -4 27 -8 14
-8 21 0 27 20 12 2 37 -24 33 -13 -3 -31 0 -42 7 -17 11 -17 11 2 5 13 -4 17
-3 10 4 -6 6 -27 6 -59 0 -57 -10 -57 -10 -59 -37 -1 -13 -6 -18 -15 -14 -8 3
-18 -2 -23 -11 -5 -8 -17 -13 -27 -11 -9 3 -27 1 -39 -3 -20 -7 -17 -11 29
-41 27 -19 47 -29 44 -23 -5 8 0 8 18 1 14 -5 28 -6 30 -1 3 5 17 6 31 3 18
-3 25 0 25 12 0 9 5 16 10 16 6 0 10 -4 10 -10 0 -5 5 -10 11 -10 5 0 7 5 3
12 -5 7 -3 8 6 3 7 -4 16 -2 21 6 6 11 11 11 20 2 12 -12 3 -15 -131 -50 -32
-8 -33 -10 -15 -20 39 -21 214 45 271 102 32 32 30 58 -5 88 -59 49 -211 69
-430 56z m226 -85 c-3 -3 -12 -4 -19 -1 -8 3 -5 6 6 6 11 1 17 -2 13 -5z"/>
<path d="M2099 526 c-2 -2 -71 -14 -154 -26 -126 -18 -183 -21 -352 -18 -197
3 -257 -3 -150 -16 130 -15 368 -6 534 20 90 15 163 31 163 35 0 9 -33 13 -41
5z"/>
<path d="M3770 514 c-54 -8 -177 -13 -285 -13 -104 1 -194 0 -200 -1 -28 -7
117 -18 240 -19 124 0 338 19 351 32 13 13 -19 13 -106 1z"/>
<path d="M3703 423 c10 -16 94 -26 114 -14 15 9 13 10 -12 11 -16 0 -48 3 -69
7 -26 4 -37 3 -33 -4z"/>
<path d="M1110 411 c0 -14 84 -122 124 -160 61 -59 52 -25 -12 43 -33 36 -68
78 -78 95 -18 30 -34 40 -34 22z"/>
<path d="M1086 289 c-22 -16 -71 -39 -109 -50 -41 -13 -65 -25 -59 -31 16 -16
142 34 186 74 49 44 37 49 -18 7z"/>
<path d="M3230 264 c-191 -30 -302 -57 -345 -84 -40 -25 -88 -92 -83 -117 3
-14 9 -8 25 22 37 70 74 92 208 123 135 31 366 62 463 62 48 0 94 5 102 10 30
19 -211 9 -370 -16z"/>
<path d="M2190 251 c0 -29 338 -52 523 -34 120 11 71 18 -100 14 -146 -3 -352
10 -405 25 -10 3 -18 1 -18 -5z"/>
<path d="M3212 183 c-10 -19 -10 -23 0 -24 7 0 4 -4 -7 -9 -45 -19 14 -9 81
14 46 17 61 25 44 26 -14 1 -39 3 -57 6 -25 3 -31 1 -27 -11 4 -8 1 -15 -4
-15 -6 0 -12 8 -14 18 -3 15 -6 14 -16 -5z"/>
<path d="M3120 177 c0 -5 9 -6 20 -2 15 5 18 3 14 -9 -3 -9 -12 -16 -20 -16
-8 0 -14 -7 -14 -16 0 -11 5 -14 16 -10 9 3 20 6 25 6 6 0 7 5 4 10 -3 6 1 13
10 16 12 5 13 10 4 20 -12 14 -59 15 -59 1z"/>
<path d="M3030 160 c-8 -5 -10 -10 -5 -10 6 0 17 5 25 10 8 5 11 10 5 10 -5 0
-17 -5 -25 -10z"/>
<path d="M3081 141 c-11 -7 -11 -9 0 -14 8 -3 4 -6 -8 -6 -13 -1 -23 -5 -23
-10 0 -17 53 5 56 22 2 19 -4 21 -25 8z"/>
<path d="M1275 100 c3 -5 48 -10 98 -10 144 -1 276 -17 446 -55 168 -37 211
-43 146 -19 -81 31 -296 74 -411 84 -157 13 -287 13 -279 0z"/>
</g>
</svg>
