<svg width="577" height="382" viewBox="0 0 577 382" fill="none" xmlns="http://www.w3.org/2000/svg">
<path d="M296.536 1.33264C285.721 2.59268 273.331 5.21771 262.201 8.78775C249.391 12.7778 227.236 23.593 216.525 30.9431C193.425 47.0083 172.635 70.9486 159.3 96.8839C154.47 106.229 153.735 107.069 150.479 107.699C146.069 108.539 145.544 109.169 142.079 117.989C138.719 126.494 138.719 128.909 141.764 133.424L144.179 136.889L142.289 147.495C139.979 160.515 139.454 188.865 141.344 201.78C144.284 222.046 152.159 245.356 161.4 261.841L165.495 269.086L152.159 268.351C139.979 267.721 138.509 267.826 136.829 269.506C135.359 271.081 135.044 272.656 135.359 277.066C135.674 280.951 135.464 283.051 134.414 283.786C132.314 285.571 135.779 290.611 141.659 294.182L146.594 297.227H166.65L186.705 297.122L194.265 304.367C215.265 324.212 242.671 339.752 271.651 348.047L280.471 350.672L276.166 351.407C271.231 352.247 261.046 357.917 256.426 362.432L253.276 365.582L255.586 367.788C257.266 369.573 264.091 371.463 284.986 376.188C309.452 381.858 312.812 382.383 319.742 381.753C323.942 381.333 327.512 380.703 327.722 380.388C328.772 378.603 326.147 368.103 324.257 366.527C323.102 365.582 316.592 362.747 309.767 360.332C302.942 357.812 296.011 355.292 294.436 354.662C292.126 353.717 296.641 353.507 314.387 353.507C335.387 353.402 338.222 353.192 348.827 350.672C377.913 343.847 405.843 329.777 428.838 310.667C438.393 302.687 438.603 302.582 444.378 302.582C447.633 302.582 451.624 301.847 453.409 301.007C456.244 299.537 465.799 287.671 468.949 281.791C470.419 278.956 469.159 275.911 465.379 274.021L462.859 272.656L467.689 264.256C477.769 246.406 485.434 224.356 489.109 202.83C489.844 198.525 490.474 187.08 490.579 177.42C490.579 167.655 490.789 159.78 491.104 159.78C491.419 159.78 493.414 160.305 495.724 160.935C500.869 162.405 505.594 161.46 510.424 158.205C512.419 156.84 515.779 155.37 517.774 155.055C523.234 154.005 527.015 148.65 524.284 145.815C523.444 145.08 521.869 142.56 520.714 140.144C517.249 133.529 498.769 122.609 486.274 119.774C480.814 118.514 480.814 118.514 477.979 111.584C460.864 70.2136 429.258 36.7181 389.883 18.0279C359.012 3.43268 327.302 -2.34241 296.536 1.33264ZM331.397 4.27271C336.647 5.32269 339.377 8.05273 344.312 17.5029C346.727 22.2279 347.882 26.428 348.932 34.0931C349.667 40.2882 351.032 45.5382 352.187 47.3233C353.237 48.8983 357.542 53.2033 361.742 56.8784C366.047 60.4484 373.712 68.5335 378.858 74.8336C390.093 88.3788 391.353 88.9038 404.583 87.5388C411.513 86.6988 414.138 85.9638 415.818 84.2838C417.918 82.1837 417.918 81.7637 416.658 75.5686C415.818 71.8936 414.978 67.5885 414.663 66.0135L414.243 62.9685L420.543 66.2235C427.578 69.7935 431.358 70.3186 433.353 68.0085C433.983 67.1685 436.713 65.5935 439.338 64.6485L444.168 62.7585L447.738 66.9585C457.609 78.4037 469.579 98.9839 476.404 116.309C479.659 124.499 483.964 138.884 483.334 139.514C483.124 139.724 478.819 137.939 473.779 135.629C466.744 132.374 463.174 129.959 459.184 125.654C454.144 120.404 453.094 119.774 443.118 116.834C437.343 115.049 431.778 113.579 430.833 113.579C428.628 113.579 424.743 120.824 421.278 131.219C417.813 141.72 416.343 142.875 409.308 140.354C401.958 137.519 369.092 122.924 366.467 121.244C365.207 120.404 361.007 113.579 357.122 106.019C348.302 88.9038 341.477 78.5087 336.017 73.5736C331.082 69.1635 326.672 66.9585 297.901 54.6734L276.481 45.5382L274.696 40.4982C271.861 32.2031 267.976 24.223 263.986 18.2379L260.206 12.6728L263.041 11.6228C267.976 9.73276 286.561 5.53271 294.226 4.4827C303.782 3.32767 325.517 3.22269 331.397 4.27271ZM361.007 22.5429C362.162 24.643 363.527 29.788 363.947 33.8831C364.997 42.0732 365.627 43.2282 374.762 54.0434C378.333 58.1384 379.593 60.1334 377.703 58.4534C368.147 49.8433 363.002 42.3882 363.002 36.8231C363.002 31.5731 360.482 23.8029 357.542 19.8129C353.447 14.4578 353.027 13.0928 356.072 15.9279C357.752 17.3979 359.957 20.3379 361.007 22.5429ZM258.001 38.9232C258.001 44.4882 265.141 54.6734 271.966 58.8734C273.856 60.0284 281.941 63.0735 290.026 65.8035C298.111 68.4285 306.617 71.7886 309.032 73.1536C314.282 76.1986 323.207 83.5487 324.467 85.8588C324.992 86.8038 322.892 85.4388 319.742 82.9187C310.922 75.6736 303.887 72.2086 287.821 66.8535C270.916 61.2885 264.616 57.1934 259.996 49.0033C256.846 43.2282 254.746 35.0381 256.846 36.2981C257.476 36.7181 258.001 37.8731 258.001 38.9232ZM381.903 49.0033C390.933 60.4484 391.248 60.9734 387.258 57.4034C383.163 53.7283 373.502 41.3382 373.502 39.7632C373.502 38.2932 374.027 38.8181 381.903 49.0033ZM388.413 46.2733L391.668 51.1033L388.623 48.2683C384.948 44.9082 380.223 37.4531 383.373 39.9732C384.423 40.8132 386.733 43.6482 388.413 46.2733ZM305.357 84.8087C309.452 87.0138 315.857 91.7389 319.742 95.4139C324.467 100.034 325.097 100.769 321.632 97.8289C318.692 95.5189 311.867 90.6888 306.407 87.2238C295.066 80.1887 294.646 79.2437 305.357 84.8087ZM152.474 111.164C150.374 116.309 145.649 130.694 145.649 132.059C145.649 134.369 143.549 132.689 142.394 129.539C140.924 125.759 145.964 111.689 149.219 110.429C152.579 109.064 153.315 109.169 152.474 111.164ZM496.354 125.759C498.349 126.599 503.914 129.539 508.534 132.164C516.199 136.574 517.354 137.624 519.559 142.35C520.819 145.29 522.079 148.02 522.289 148.335C523.129 149.7 519.244 152.43 516.514 152.43C514.939 152.43 512.314 153.375 510.529 154.53C506.749 157.05 505.804 157.155 505.804 155.055C505.804 152.325 501.604 144.975 499.714 144.345C498.769 143.925 495.619 142.035 492.784 140.144C490.054 138.254 487.324 136.679 487.009 136.679C486.589 136.679 485.434 133.949 484.489 130.589C483.544 127.334 482.494 123.764 482.179 122.819C481.444 121.139 481.759 121.034 487.114 122.609C490.159 123.554 494.359 125.024 496.354 125.759ZM342.002 178.05C369.932 190.86 370.037 190.965 360.587 199.05C352.607 205.875 351.767 208.395 354.917 215.535C356.282 218.686 358.067 221.731 358.907 222.466C363.317 226.141 400.278 226.981 408.258 223.621C410.253 222.676 414.348 220.366 417.183 218.371C420.018 216.27 424.113 214.065 426.318 213.33C428.838 212.595 431.043 210.915 432.303 208.92C434.613 205.035 436.923 193.275 436.083 189.81C435.348 186.87 435.243 186.975 452.254 182.46C462.334 179.835 483.544 175.53 486.589 175.53C488.059 175.53 488.164 176.895 487.639 186.24C486.904 198.525 484.279 214.275 481.759 222.676L480.079 228.346L471.049 228.661C454.249 229.186 443.748 232.021 436.818 237.901C433.143 241.051 429.153 250.186 429.153 255.646V259.006H422.643C416.763 259.111 414.873 259.636 405.108 264.781L394.293 270.556L394.923 276.436L395.448 282.421L384.213 285.676C364.892 291.242 362.162 291.661 356.387 288.931C353.027 287.356 351.032 286.936 350.087 287.671C348.197 289.141 338.012 292.292 336.962 291.661C336.437 291.346 334.757 287.461 332.972 283.051C331.292 278.641 328.982 274.441 327.827 273.706C326.672 272.971 322.892 272.026 319.427 271.711C311.657 270.871 306.617 273.391 305.567 278.431C305.252 280.216 304.202 282.106 303.257 282.526C297.376 285.676 277.321 292.292 271.126 293.132C267.136 293.762 261.571 294.707 258.841 295.442C252.226 297.122 249.706 295.757 245.716 288.721C243.931 285.676 241.726 282.421 240.781 281.686C239.836 280.951 239.101 279.166 239.101 277.696V275.176L256.741 275.911L274.381 276.646L282.046 268.351C292.126 257.431 292.546 256.486 289.501 250.816C285.196 242.941 282.571 240.946 270.601 236.746L259.366 232.861L263.776 227.401C268.396 221.731 270.286 215.22 269.026 209.97C267.871 205.35 270.706 200.73 276.376 197.685L281.626 194.85V186.345C281.626 176.37 281.836 176.055 292.651 171.96C302.522 168.18 306.092 167.34 312.602 167.235C317.747 167.13 320.792 168.285 342.002 178.05ZM458.134 168.39C456.979 169.02 451.729 170.91 446.373 172.485C434.823 175.95 428.943 178.785 426.843 182.04C426.003 183.405 424.008 187.92 422.328 192.12C417.393 205.14 409.413 211.02 395.238 211.755L387.678 212.175L395.868 210.6C410.883 207.765 417.393 202.305 421.593 189.39C424.848 179.31 429.153 175.53 441.438 171.855C446.478 170.28 451.833 168.705 453.304 168.18C454.774 167.655 456.874 167.235 458.029 167.235C460.129 167.235 460.129 167.235 458.134 168.39ZM401.433 201.99C400.278 202.62 396.078 203.25 391.983 203.46L384.528 203.775L392.193 202.83C396.393 202.41 400.173 201.675 400.488 201.36C400.908 201.045 401.643 200.73 402.273 200.73C402.903 200.73 402.483 201.36 401.433 201.99ZM208.86 202.83C210.96 203.46 214.74 205.56 217.155 207.66C222.195 211.86 223.665 211.755 233.431 207.45C236.581 206.085 239.101 205.455 239.101 206.085C239.101 207.555 227.656 212.49 223.77 212.595C220.515 212.7 218.73 211.755 212.535 206.82C210.435 205.14 207.81 204.405 202.77 204.09C198.36 203.775 196.365 203.25 197.205 202.725C199.2 201.465 204.135 201.57 208.86 202.83ZM198.885 208.71C207.6 209.445 213.9 212.7 216.42 217.951C218.31 221.836 218.52 221.941 222.615 221.311C224.925 220.891 232.591 218.791 239.521 216.48C246.451 214.17 252.331 212.49 252.436 212.7C253.171 213.435 240.256 218.581 231.331 221.101C218.205 224.986 216.945 224.776 214.425 219.316C210.96 212.07 207.495 211.02 185.13 210.18C173.79 209.865 165.285 209.13 164.025 208.395C162.345 207.45 165.285 207.24 177.15 207.66C185.55 207.975 195.315 208.395 198.885 208.71ZM190.065 221.416C201.72 222.151 202.77 222.781 204.555 229.396C205.185 231.811 206.55 235.381 207.705 237.376C209.07 239.791 210.12 244.621 210.96 252.286C211.59 258.586 211.905 263.941 211.695 264.151C211.17 264.676 196.155 262.156 195.63 261.526C195.42 261.316 194.475 259.531 193.53 257.746C188.49 247.876 181.35 249.766 173.265 263.101C169.695 268.771 169.38 269.086 168.015 267.301C163.605 261.211 150.899 232.966 150.899 229.186C150.899 228.661 153.105 229.396 155.94 230.761C164.55 234.961 169.8 233.596 169.8 227.086C169.8 225.931 170.325 223.726 170.85 222.151C171.9 219.631 172.32 219.421 175.89 220.051C177.99 220.366 184.395 220.996 190.065 221.416ZM259.786 236.011C281.731 244.201 283.516 245.041 285.721 249.766C287.926 254.386 287.926 254.281 283.831 254.281C281.836 254.281 279.001 254.701 277.636 255.226C275.641 256.066 273.331 255.541 267.346 253.126C259.786 250.081 231.331 240.421 220.725 237.376L215.58 235.801L227.551 232.546C234.166 230.761 239.941 229.186 240.361 229.186C240.676 229.081 249.496 232.231 259.786 236.011ZM478.084 232.546C478.924 233.386 473.464 246.721 467.899 257.326C459.919 272.551 461.494 271.711 450.573 266.986C445.428 264.781 439.128 262.261 436.608 261.526L432.093 260.161L432.618 254.701C433.143 249.346 437.133 240.001 439.863 237.796C442.278 235.696 451.518 233.281 460.129 232.336C468.319 231.391 477.034 231.496 478.084 232.546ZM232.486 243.886C243.406 247.456 256.636 252.076 261.886 254.071L271.651 257.851L270.916 265.306C270.601 269.296 270.181 272.866 269.971 273.076C269.761 273.286 259.261 272.971 246.766 272.341C234.166 271.711 221.985 271.291 219.675 271.396L215.475 271.606L214.32 257.431C213.69 249.661 212.745 241.996 212.325 240.316C211.905 238.741 211.8 237.481 212.22 237.481C212.535 237.481 221.67 240.421 232.486 243.886ZM188.91 256.066C189.855 257.116 191.325 259.426 192.27 261.316C193.74 264.361 194.58 264.676 201.72 265.831C211.065 267.406 211.8 267.826 212.22 271.711L212.64 274.756L224.295 274.441C235.006 274.021 235.951 274.231 235.951 276.016C235.951 278.011 236.161 278.431 242.986 289.771C248.236 298.382 252.016 300.482 258.526 298.382C260.521 297.752 265.876 296.807 270.391 296.387C275.956 295.757 282.361 294.077 290.131 291.136C307.877 284.311 308.402 284.101 308.402 281.161C308.402 279.691 309.557 277.696 311.132 276.436C313.337 274.756 314.807 274.441 319.217 274.966C322.262 275.281 325.412 275.911 326.357 276.436C327.932 277.171 334.337 292.817 333.497 293.552C333.287 293.762 327.932 295.967 321.527 298.382C312.287 302.057 309.137 303.737 305.777 307.307C303.467 309.827 300.106 312.557 298.321 313.397C293.911 315.707 283.516 317.282 271.546 317.492C262.201 317.702 261.256 317.492 253.171 313.922C240.991 308.357 237.001 307.727 219.36 308.462L203.925 309.197L197.835 303.632C194.58 300.692 191.85 297.752 191.85 297.332C191.85 296.807 193.635 296.177 195.945 295.757C203.925 294.392 203.4 287.356 194.475 277.591C191.43 274.126 189.855 273.391 181.98 271.711L173.055 269.716L175.365 265.516C178.305 260.161 183.765 254.281 185.76 254.281C186.6 254.281 188.07 255.121 188.91 256.066ZM436.083 264.361C445.533 267.511 465.274 276.541 466.324 278.221C468.004 280.951 460.759 280.426 436.923 276.331C423.168 273.916 410.043 271.711 407.943 271.396C405.738 271.081 403.953 270.556 403.953 270.136C403.953 269.821 406.578 268.141 409.728 266.356C414.558 263.836 418.338 262.786 426.633 261.736C427.368 261.736 431.568 262.891 436.083 264.361ZM172.425 272.131C183.135 273.286 189.75 275.071 189.75 276.856C189.75 280.006 187.02 280.531 170.955 280.531C161.925 280.636 151.004 281.056 146.699 281.581C142.394 282.001 138.719 282.316 138.614 282.211C138.509 282.106 138.089 279.586 137.669 276.541L136.934 271.081H149.954C157.095 271.081 167.28 271.606 172.425 272.131ZM186.075 285.781C186.495 286.936 187.86 289.246 189.225 290.926L191.85 293.867L187.335 294.497C179.145 295.652 147.539 294.077 144.074 292.292C139.979 290.296 137.249 287.881 137.249 286.201C137.249 284.521 141.869 284.101 166.335 283.891C184.605 283.681 185.445 283.786 186.075 285.781ZM397.443 290.296C398.073 292.817 399.438 295.652 400.488 296.492C401.748 297.647 407.838 299.012 417.603 300.482C426.003 301.742 432.933 302.897 433.038 303.002C433.563 303.422 417.918 315.707 410.253 320.852C400.803 327.257 378.963 338.492 377.703 337.757C377.283 337.442 376.337 335.237 375.707 332.822C374.237 327.677 372.977 325.787 369.407 323.267L366.887 321.587L369.512 320.537C373.607 318.962 376.652 315.182 376.652 311.717C376.652 309.617 374.972 306.677 370.877 301.742C367.727 297.857 365.102 294.392 365.102 293.972C365.102 293.552 366.152 293.132 367.517 293.027C368.777 293.027 375.287 291.451 381.903 289.561C388.518 287.566 394.503 285.991 395.133 285.886C395.868 285.886 396.918 287.776 397.443 290.296ZM356.282 291.767C359.012 292.397 370.037 303.317 368.987 304.367C366.362 306.887 319.742 311.927 311.972 310.562C304.412 309.092 307.772 306.782 329.822 298.382C338.957 294.917 347.252 291.557 348.197 291.031C349.142 290.401 350.822 290.296 351.977 290.611C353.132 290.926 355.127 291.451 356.282 291.767ZM373.607 314.027C370.877 317.807 370.982 317.807 343.052 319.277C312.812 320.957 313.127 320.957 310.607 317.702C309.347 316.127 308.402 314.342 308.402 313.712C308.402 312.872 313.652 312.557 325.517 312.452C342.422 312.347 358.487 310.352 367.097 307.307C370.562 306.047 371.087 306.152 373.397 308.357L375.917 310.772L373.607 314.027ZM256.111 322.217C270.601 327.047 271.546 327.257 283.411 327.257C294.121 327.257 295.276 327.467 292.336 328.517C290.551 329.147 285.301 329.777 280.681 329.777C273.541 329.882 270.496 329.252 258.421 325.157C250.756 322.637 241.516 320.012 237.946 319.487C229.756 318.122 228.811 317.282 235.636 317.282C239.206 317.282 246.031 318.962 256.111 322.217ZM300.526 333.662C294.961 335.762 282.571 336.707 277.951 335.342C274.801 334.397 275.536 334.292 284.251 334.082C289.711 333.977 295.696 333.452 297.376 333.032C302.837 331.667 304.937 332.087 300.526 333.662ZM301.367 359.492C316.067 364.742 320.057 366.632 316.487 366.632C315.437 366.632 313.547 367.368 312.077 368.313C309.662 369.888 308.927 369.573 293.701 362.222C278.686 354.872 275.221 352.037 282.886 353.507C284.776 353.822 293.071 356.552 301.367 359.492ZM277.636 357.287C280.366 358.442 288.241 362.012 295.066 365.267C306.932 370.938 307.457 371.358 306.827 373.878C306.407 375.348 305.987 376.818 305.672 377.028C305.042 377.658 259.681 367.683 258.736 366.737C258.211 366.212 258.106 365.267 258.421 364.742C259.051 363.797 271.441 355.082 272.176 355.082C272.386 355.082 274.801 356.027 277.636 357.287Z" fill="black"/>
<path d="M279.526 23.8029C281.521 33.148 287.506 41.6531 294.751 45.3282C299.476 47.7432 322.157 54.9883 322.787 54.3583C323.417 53.7283 318.692 51.6283 304.306 46.3782C291.391 41.5481 287.821 38.5031 282.571 28.003C280.366 23.8029 279.106 22.0179 279.526 23.8029Z" fill="black"/>
<path d="M291.601 32.2031C291.496 36.1932 299.581 41.7582 311.237 45.7483C328.037 51.4184 332.237 55.0934 348.617 77.8787C350.402 80.3987 350.402 80.3987 348.722 76.8287C344.207 67.2736 332.762 53.9384 324.782 48.7933C322.472 47.3233 316.592 44.8033 311.762 43.1233C301.891 39.7632 294.331 35.7732 292.756 32.9381C292.126 31.9931 291.601 31.6781 291.601 32.2031Z" fill="black"/>
<path d="M369.197 107.699C373.293 111.899 384.423 117.989 391.248 119.879C398.493 121.769 397.233 120.509 388.098 116.834C383.478 114.944 376.443 111.269 372.663 108.644C365.627 104.024 365.627 104.024 369.197 107.699Z" fill="black"/>
<path d="M435.768 106.859C436.083 107.174 440.388 108.854 445.323 110.534C454.773 113.684 460.339 116.729 467.794 122.714C473.044 126.915 473.674 125.969 468.844 121.244C463.804 116.414 453.723 110.639 446.058 108.329C439.653 106.334 434.403 105.599 435.768 106.859Z" fill="black"/>
<path d="M414.033 120.089C412.668 123.134 411.303 126.494 410.883 127.544C410.568 128.489 409.518 129.644 408.573 130.064C406.053 131.009 396.498 127.649 386.208 122.294C378.648 118.304 377.598 117.989 379.698 120.194C384.843 125.759 404.898 134.369 409.308 133.004C411.618 132.269 415.608 124.394 417.078 117.989C418.128 112.949 416.763 113.894 414.033 120.089Z" fill="black"/>
<path d="M492.154 131.954C492.154 132.164 493.939 133.32 496.144 134.475C500.344 136.68 504.124 140.04 507.799 144.66C511.159 148.965 511.789 146.76 508.429 141.93C505.279 137.415 497.194 131.429 494.044 131.429C492.994 131.429 492.154 131.639 492.154 131.954Z" fill="black"/>
<path d="M500.134 132.375C504.649 136.575 513.049 142.77 512.314 141.195C510.319 137.52 502.549 131.43 499.924 131.43C499.399 131.43 499.504 131.85 500.134 132.375Z" fill="black"/>
<path d="M297.272 175.425C293.071 177.315 290.866 179.31 291.916 180.36C292.126 180.57 294.436 179.835 296.957 178.68C305.357 174.9 310.922 175.74 324.362 182.775C336.962 189.285 345.992 192.75 349.037 192.12C350.087 191.91 347.357 190.44 343.052 188.865C338.747 187.29 331.397 183.825 326.777 181.2C312.392 172.905 305.672 171.645 297.272 175.425Z" fill="black"/>
<path d="M310.502 182.146C310.502 182.881 336.437 195.481 337.802 195.481C340.847 195.481 336.122 192.121 326.042 187.081C317.327 182.671 310.502 180.571 310.502 182.146Z" fill="black"/>
<path d="M458.554 189.6C448.368 192.435 445.323 195.165 442.278 203.88C439.653 211.651 438.393 213.436 432.828 217.216L427.578 220.891L431.253 220.261C436.398 219.316 442.383 213.121 444.483 206.61C447.843 196.215 449.733 194.745 465.169 190.755L474.829 188.34H469.054C465.904 188.34 461.179 188.865 458.554 189.6Z" fill="black"/>
<path d="M331.292 252.286C326.882 253.966 327.722 256.486 334.442 262.891L340.532 268.666L346.202 267.616C361.742 264.781 362.372 264.571 364.367 260.161C367.727 253.126 366.467 252.496 346.727 251.656C338.957 251.341 333.077 251.551 331.292 252.286ZM361.322 255.436C361.742 255.751 361.532 257.326 361.007 258.796C360.167 261.001 358.907 261.631 353.867 262.576C350.507 263.206 346.307 264.151 344.522 264.676C341.582 265.411 340.847 265.096 336.332 260.896C333.707 258.271 331.502 255.751 331.502 255.121C331.502 254.071 360.272 254.281 361.322 255.436Z" fill="black"/>
<path d="M275.011 362.642C275.431 363.902 289.081 369.783 291.601 369.678C293.176 369.573 277.216 361.487 275.536 361.382C275.011 361.382 274.801 361.907 275.011 362.642Z" fill="black"/>
<path d="M105.749 101.504C92.4137 110.009 91.0487 111.164 91.0487 114.629C91.0487 119.564 96.1937 120.509 111.734 118.409C118.559 117.464 126.014 116.729 128.114 116.729C130.424 116.729 132.314 116.099 132.629 115.364C133.469 113.054 129.164 102.869 125.804 99.0889C120.974 93.9439 116.774 94.3639 105.749 101.504ZM123.599 99.4039C124.544 100.559 124.544 100.979 123.704 100.979C122.969 100.979 119.294 103.919 115.304 107.489C111.419 111.164 107.219 114.944 105.959 115.889C103.649 117.779 97.9788 118.409 94.8287 117.149C91.1537 115.784 93.8837 110.534 99.0288 108.959C100.184 108.644 104.489 105.914 108.479 103.079C116.144 97.6189 121.079 96.3589 123.599 99.4039Z" fill="black"/>
<path d="M86.0086 130.064C84.0136 131.114 81.9136 133.319 80.9686 135.629C79.9186 137.939 77.8185 140.249 75.5085 141.404C68.7884 145.184 67.8434 147.494 67.2134 161.564C66.4784 176.16 65.0084 173.535 81.8086 187.395C88.0037 192.54 93.2537 197.37 93.5687 198.105C93.9887 199.26 96.6138 199.365 105.959 199.05C123.179 198.315 122.024 198.84 123.494 190.02C124.229 185.82 125.069 177.42 125.384 171.33L126.014 160.304L121.079 153.899C118.454 150.329 115.199 144.659 113.939 141.299C112.679 137.834 110.999 134.159 110.264 133.004C107.324 128.594 92.6237 126.809 86.0086 130.064ZM106.064 132.374C107.954 133.109 109.424 135.314 111.524 140.879C113.099 144.974 115.934 150.434 117.824 152.954C122.129 158.519 123.914 161.879 123.179 162.72C122.864 163.035 121.499 162.299 120.134 161.039C116.879 157.994 114.044 158.099 108.689 161.774C106.169 163.455 102.914 165.135 101.339 165.45C99.0288 165.975 98.2938 165.555 96.6138 162.614C95.4588 160.829 92.9387 156.629 91.0487 153.269C87.1636 146.759 84.6436 145.079 78.2385 145.079H73.9335L77.5035 142.664C79.3935 141.404 81.4936 139.304 82.1236 138.044C84.0136 134.264 85.9036 132.479 89.3687 131.429C92.9387 130.379 102.074 130.904 106.064 132.374ZM119.189 164.19C121.604 165.555 123.599 167.34 123.599 168.18C123.599 170.175 120.344 194.85 120.134 195.06C120.029 195.165 114.989 195.48 108.899 195.69L97.7688 196.215L99.1338 188.76C99.8688 184.665 100.394 178.365 100.499 174.9C100.499 168.705 100.604 168.39 103.439 167.865C105.014 167.55 107.954 166.08 109.949 164.715C111.944 163.245 113.834 161.984 114.149 161.984C114.464 161.879 116.669 162.93 119.189 164.19Z" fill="black"/>
<path d="M104.279 139.83C105.539 144.555 110.789 155.16 110.894 152.955C110.894 151.8 109.214 147.81 107.219 144.03C105.224 140.25 103.859 138.36 104.279 139.83Z" fill="black"/>
<path d="M102.179 144.765C103.964 149.175 105.749 151.485 105.749 149.49C105.749 147.705 102.284 140.88 101.444 140.88C100.919 140.88 101.339 142.665 102.179 144.765Z" fill="black"/>
<path d="M114.989 174.48C114.569 175.95 113.939 180.045 113.624 183.405L113.099 189.705L114.674 184.98C115.619 182.355 116.144 178.365 116.039 176.055C115.724 172.38 115.619 172.17 114.989 174.48Z" fill="black"/>
<path d="M542.135 132.27C541.4 133.53 544.235 153.9 545.6 156.42C548.015 161.04 556.415 157.995 566.81 148.965L571.43 144.975L569.33 141.09C567.44 137.625 566.285 136.89 558.83 134.37C550.535 131.535 543.185 130.59 542.135 132.27ZM554.21 135.84C558.515 137.1 559.355 138.15 556.73 139.2C554.63 139.935 548.855 149.175 548.855 151.695C548.855 155.475 546.86 152.325 546.23 147.39C545.915 144.66 545.39 140.67 545.18 138.465C544.655 134.79 544.76 134.58 547.385 134.58C548.96 134.58 552.005 135.105 554.21 135.84Z" fill="black"/>
<path d="M8.93758 143.925C5.99754 147.81 0.537463 159.57 0.957469 161.565C1.16747 162.72 7.67756 165.66 21.7477 171.015C32.9829 175.215 42.538 178.68 42.853 178.68C44.008 178.68 49.9931 164.19 50.7281 159.885C51.5681 154.425 47.9981 147.915 42.223 144.555C38.548 142.455 36.3429 142.035 24.4778 141.72C11.2476 141.405 10.9326 141.405 8.93758 143.925ZM41.803 146.55C43.273 147.705 45.2681 149.805 46.3181 151.17L48.3131 153.69L41.698 152.955C37.078 152.43 34.4529 152.64 32.6679 153.585C30.5679 154.635 29.8329 154.635 28.3628 153.27C27.3128 152.325 23.2178 149.91 19.1227 147.915L11.7726 144.135L25.4228 144.345C37.078 144.555 39.493 144.87 41.803 146.55ZM19.6477 150.435C23.9528 152.85 27.6278 154.845 27.8378 155.055C28.0478 155.265 27.4178 156.84 26.5778 158.625C25.6328 160.305 24.8978 163.455 24.8978 165.45V169.125L15.7627 165.975C4.31751 162.195 3.4775 161.67 4.31751 158.94C4.94752 156.945 5.26253 156.945 9.67259 158.31C15.5527 159.99 15.6577 159.465 10.0926 156.63C4.21251 153.585 5.57753 152.955 12.1926 155.58C20.3827 158.73 22.1678 157.89 14.7127 154.425C11.0376 152.745 8.09756 151.065 8.09756 150.75C8.09756 149.595 10.3026 146.13 11.0376 146.13C11.4576 146.13 15.3427 148.125 19.6477 150.435Z" fill="black"/>
<path d="M557.255 167.235C554.63 167.655 549.38 168.075 545.495 168.075C541.715 168.18 537.725 168.495 536.78 168.81C534.785 169.65 531.005 176.79 528.38 184.875C526.595 190.335 526.595 190.545 528.59 193.275C531.53 197.16 536.885 198.21 545.81 196.74C549.8 196.005 557.78 195.48 563.555 195.48C575 195.48 576.68 194.64 575 189.285C574.475 187.815 573.32 183.93 572.48 180.78C570.38 173.64 565.655 166.08 563.555 166.185C562.715 166.29 559.88 166.71 557.255 167.235ZM556.73 172.8C553.79 174.795 550.115 177.84 548.435 179.625C546.755 181.305 545.075 182.565 544.655 182.355C544.13 182.04 541.295 182.355 538.25 182.88C535.205 183.51 532.58 183.72 532.265 183.51C532.055 183.195 532.895 180.36 534.26 177.21L536.675 171.33L543.5 171.225C547.28 171.225 552.32 170.805 554.63 170.385C561.875 168.81 562.085 169.125 556.73 172.8ZM543.185 189.705C542.135 194.43 542.03 194.43 537.62 194.43C532.895 194.43 529.955 192.435 529.955 189.18C529.955 187.815 531.215 187.08 534.995 186.24C544.34 184.35 544.445 184.35 543.185 189.705Z" fill="black"/>
<path d="M19.9627 188.865C17.5477 190.125 16.4977 191.385 16.4977 193.065C16.4977 196.53 23.0078 209.131 24.7928 209.131C25.5278 209.131 28.2578 207.451 30.7779 205.456C34.2429 202.621 35.3979 200.836 35.9229 197.58C36.7629 192.75 35.8179 191.07 30.8829 188.655C26.8928 186.66 24.2678 186.765 19.9627 188.865Z" fill="black"/>
<path d="M505.699 194.956C499.819 198.001 489.529 208.921 488.689 212.911C487.849 217.426 493.099 247.771 495.724 253.126C497.089 256.171 502.234 258.481 507.274 258.481C510.319 258.481 512.419 257.221 518.824 251.656C527.96 243.676 537.515 233.281 540.14 228.346C541.925 224.881 541.925 224.776 539.615 220.366C538.355 217.951 533.525 211.756 528.905 206.506C524.284 201.361 520.504 196.741 520.504 196.321C520.504 195.166 514.624 192.331 512.419 192.331C511.369 192.436 508.324 193.591 505.699 194.956ZM511.054 196.216C511.054 196.741 510.319 199.681 509.479 202.831C508.639 205.981 507.169 214.696 506.224 222.151C504.544 235.171 504.334 235.906 500.974 239.371C498.979 241.366 497.404 243.466 497.404 243.991C497.404 244.411 496.984 244.831 496.564 244.831C495.304 244.831 492.154 230.026 491.419 220.681L490.789 212.701L497.404 205.141C500.974 200.941 504.649 197.161 505.594 196.531C507.694 195.376 511.054 195.166 511.054 196.216ZM512.104 245.671C513.364 248.926 514.099 252.076 513.784 252.916C512.839 255.331 508.219 256.486 503.494 255.436C495.304 253.546 495.409 248.926 503.599 240.316C507.064 236.746 507.484 236.536 508.639 238.216C509.374 239.161 510.949 242.521 512.104 245.671Z" fill="black"/>
<path d="M500.344 208.71C499.819 209.13 499.504 213.751 499.504 219.001C499.609 225.931 499.819 228.031 500.659 226.771C501.814 224.671 501.499 207.45 500.344 208.71Z" fill="black"/>
<path d="M495.409 218.266C495.514 226.351 497.194 228.766 497.299 220.996C497.404 217.426 496.984 214.171 496.354 213.856C495.724 213.436 495.304 215.116 495.409 218.266Z" fill="black"/>
<path d="M61.1232 208.711C49.0481 212.281 47.0531 213.331 44.428 217.846C40.648 224.356 40.333 227.611 43.168 230.446C47.0531 234.226 49.6781 238.636 51.6731 244.831C52.6181 247.981 54.0882 251.236 54.7182 251.866C56.0832 253.336 94.7237 258.481 105.854 258.691C115.514 258.901 116.249 258.166 116.249 248.086C116.249 243.676 115.619 239.056 114.884 237.796C113.834 235.906 83.2785 212.176 76.8735 208.396C74.0384 206.716 67.6333 206.821 61.1232 208.711ZM74.5634 210.286C75.8234 211.021 84.3286 217.006 93.4637 223.726L110.159 235.906L106.799 236.851C103.439 237.796 93.6737 236.116 73.7234 230.866C67.5283 229.186 62.8033 228.661 55.7682 228.871C43.588 229.291 42.328 228.241 45.898 220.681C48.5231 215.116 50.4131 213.961 62.1733 210.706C68.7884 208.921 71.7284 208.816 74.5634 210.286ZM81.9135 235.171C90.5236 237.061 97.8737 238.741 98.3987 239.056C99.3438 239.686 102.914 254.281 102.284 255.016C101.759 255.436 61.9633 251.446 57.7632 250.501C56.2932 250.186 55.3482 249.241 55.3482 247.981C55.3482 246.406 52.0931 238.321 49.2581 233.071C48.7331 232.126 54.8232 231.391 61.1232 231.706C64.0633 231.811 73.4084 233.386 81.9135 235.171Z" fill="black"/>
<path d="M66.8984 237.166C66.8984 237.691 71.5184 239.266 77.1885 240.631C82.7536 242.101 88.0037 243.361 88.8437 243.571C89.5787 243.781 89.8937 243.466 89.5787 242.836C88.1087 240.526 66.8984 235.276 66.8984 237.166Z" fill="black"/>
<path d="M70.3634 241.786C72.4634 243.046 83.5936 246.931 84.9586 246.931C87.8986 246.931 83.6986 244.621 77.5035 242.731C69.6284 240.421 67.5284 240.106 70.3634 241.786Z" fill="black"/>
<path d="M563.03 221.416C557.255 227.611 556.94 228.346 558.62 229.501C559.565 230.236 560.405 231.916 560.405 233.176C560.405 234.436 562.085 237.166 564.08 239.266C567.65 242.942 567.755 242.942 570.38 241.261C574.37 238.636 576.575 233.491 576.575 226.771C576.68 220.576 573.95 215.116 570.8 214.801C569.96 214.696 566.495 217.636 563.03 221.416Z" fill="black"/>
<path d="M538.355 267.301C527.119 271.186 517.984 275.491 514.414 278.852C508.954 283.787 505.384 294.812 508.324 297.332C510.949 299.432 522.394 297.962 537.305 293.657C559.46 287.252 561.455 285.992 561.455 277.906C561.455 274.441 557.885 265.831 555.89 264.571C553.475 263.101 548.33 263.836 538.355 267.301ZM524.914 285.992C524.284 286.727 523.549 289.142 523.129 291.242C522.499 294.602 521.869 295.232 519.034 295.862C517.144 296.177 514.204 296.282 512.524 296.072C509.164 295.757 509.059 294.392 511.579 288.092C513.049 284.837 513.259 284.732 519.559 284.732C524.599 284.732 525.754 285.047 524.914 285.992Z" fill="black"/>
<path d="M99.8688 292.607C97.5587 296.177 96.8237 303.002 98.3987 306.782C101.339 313.922 107.849 315.812 117.614 312.347C123.599 310.142 123.914 308.357 119.189 303.002C115.619 298.907 104.174 289.982 102.494 289.982C101.969 289.982 100.814 291.137 99.8688 292.607ZM108.269 296.177C111.209 298.487 115.514 301.952 117.824 303.947L122.024 307.622L117.824 309.407C115.514 310.352 111.839 311.402 109.739 311.717C106.484 312.242 105.434 311.822 103.124 309.407C101.654 307.727 100.184 305.312 99.8688 303.947C99.2388 301.532 101.234 292.082 102.389 292.082C102.704 292.082 105.329 293.972 108.269 296.177Z" fill="black"/>
<path d="M468.529 302.162C467.374 302.372 461.284 303.632 454.984 304.997L443.538 307.307L440.913 312.872C439.548 315.917 438.603 319.067 438.918 319.697C439.548 321.272 455.824 324.632 465.904 325.367C471.469 325.787 473.884 325.367 479.029 323.267C486.169 320.327 486.589 319.487 485.329 308.147L484.594 301.532L477.664 301.637C473.779 301.742 469.684 301.952 468.529 302.162ZM473.359 309.092C471.679 311.612 469.684 315.602 468.949 318.017C467.479 323.267 467.899 323.162 452.674 320.852C442.278 319.172 441.753 318.962 442.383 316.862C444.063 311.297 445.533 309.407 448.473 309.092C450.049 308.882 455.299 307.832 460.024 306.782C464.644 305.732 470.314 304.787 472.414 304.787L476.299 304.682L473.359 309.092Z" fill="black"/>
<path d="M459.604 310.667C450.364 312.137 445.848 313.397 446.688 314.237C447.528 315.077 458.239 313.922 463.069 312.452C464.749 311.927 464.644 309.722 462.964 310.037C462.544 310.142 461.074 310.457 459.604 310.667Z" fill="black"/>
<path d="M450.153 316.232C448.158 317.492 454.564 317.492 458.554 316.232C460.759 315.497 460.339 315.392 456.454 315.287C453.829 315.287 450.993 315.707 450.153 316.232Z" fill="black"/>
<path d="M175.575 326.417C171.48 332.087 171.06 334.922 173.79 338.072C177.15 341.957 197.205 357.183 199.725 357.813C203.085 358.653 208.44 354.767 210.33 350.147C212.01 346.157 212.115 336.392 210.435 334.292C209.805 333.452 207.39 331.877 205.08 330.722C199.935 328.097 182.4 321.482 180.615 321.482C179.88 321.482 177.675 323.687 175.575 326.417ZM192.795 327.782C208.86 334.082 208.44 333.662 203.925 336.812L200.145 339.332L197.205 337.337C195.63 336.182 190.8 333.557 186.495 331.352C182.19 329.252 178.515 327.362 178.305 327.152C177.78 326.627 180.3 323.582 181.245 323.582C181.665 323.582 186.81 325.472 192.795 327.782ZM188.175 334.712C199.41 340.277 199.2 340.067 198.36 347.627L197.625 354.137L186.285 345.002C179.985 340.067 174.63 335.237 174.315 334.502C173.475 332.192 176.1 329.777 178.62 330.512C179.88 330.827 184.185 332.717 188.175 334.712Z" fill="black"/>
<path d="M392.508 337.652C389.988 339.122 387.258 343.007 387.153 345.422C387.153 347.627 394.293 350.042 402.903 350.882C412.353 351.722 414.453 350.987 414.453 346.367C414.453 341.852 413.823 341.222 407.418 338.492C401.328 335.867 396.183 335.552 392.508 337.652ZM406.158 340.487C410.253 342.272 411.303 343.217 411.303 345.212C411.303 347.522 410.883 347.732 405.423 347.732C398.178 347.732 390.303 345.842 390.303 344.057C390.303 341.957 395.448 338.282 398.388 338.282C399.753 338.282 403.323 339.332 406.158 340.487Z" fill="black"/>
<path d="M360.692 354.033C357.122 356.763 354.917 362.958 356.702 365.058C358.487 367.158 361.217 367.053 365.942 364.638C371.403 361.803 373.713 358.968 373.293 355.398C372.978 352.668 372.558 352.458 368.147 352.143C364.577 351.933 362.687 352.353 360.692 354.033Z" fill="black"/>
</svg>
