<?xml version="1.0" standalone="no"?>
<!DOCTYPE svg PUBLIC "-//W3C//DTD SVG 20010904//EN"
 "http://www.w3.org/TR/2001/REC-SVG-20010904/DTD/svg10.dtd">
<svg version="1.0" xmlns="http://www.w3.org/2000/svg"
 width="550.000000pt" height="364.000000pt" viewBox="0 0 550.000000 364.000000"
 preserveAspectRatio="xMidYMid meet">

<g transform="translate(0.000000,364.000000) scale(0.100000,-0.100000)"
fill="#000000" stroke="none">
<path d="M2827 3629 c-103 -12 -221 -37 -327 -71 -122 -38 -333 -141 -435
-211 -220 -153 -418 -381 -545 -628 -46 -89 -53 -97 -84 -103 -42 -8 -47 -14
-80 -98 -32 -81 -32 -104 -3 -147 l23 -33 -18 -101 c-22 -124 -27 -394 -9
-517 28 -193 103 -415 191 -572 l39 -69 -127 7 c-116 6 -130 5 -146 -11 -14
-15 -17 -30 -14 -72 3 -37 1 -57 -9 -64 -20 -17 13 -65 69 -99 l47 -29 191 0
191 1 72 -69 c200 -189 461 -337 737 -416 l84 -25 -41 -7 c-47 -8 -144 -62
-188 -105 l-30 -30 22 -21 c16 -17 81 -35 280 -80 233 -54 265 -59 331 -53 40
4 74 10 76 13 10 17 -15 117 -33 132 -11 9 -73 36 -138 59 -65 24 -131 48
-146 54 -22 9 21 11 190 11 200 1 227 3 328 27 277 65 543 199 762 381 91 76
93 77 148 77 31 0 69 7 86 15 27 14 118 127 148 183 14 27 2 56 -34 74 l-24
13 46 80 c96 170 169 380 204 585 7 41 13 150 14 242 0 93 2 168 5 168 3 0 22
-5 44 -11 49 -14 94 -5 140 26 19 13 51 27 70 30 52 10 88 61 62 88 -8 7 -23
31 -34 54 -33 63 -209 167 -328 194 -52 12 -52 12 -79 78 -163 394 -464 713
-839 891 -294 139 -596 194 -889 159z m332 -28 c50 -10 76 -36 123 -126 23
-45 34 -85 44 -158 7 -59 20 -109 31 -126 10 -15 51 -56 91 -91 41 -34 114
-111 163 -171 107 -129 119 -134 245 -121 66 8 91 15 107 31 20 20 20 24 8 83
-8 35 -16 76 -19 91 l-4 29 60 -31 c67 -34 103 -39 122 -17 6 8 32 23 57 32
l46 18 34 -40 c94 -109 208 -305 273 -470 31 -78 72 -215 66 -221 -2 -2 -43
15 -91 37 -67 31 -101 54 -139 95 -48 50 -58 56 -153 84 -55 17 -108 31 -117
31 -21 0 -58 -69 -91 -168 -33 -100 -47 -111 -114 -87 -70 27 -383 166 -408
182 -12 8 -52 73 -89 145 -84 163 -149 262 -201 309 -47 42 -89 63 -363 180
l-204 87 -17 48 c-27 79 -64 155 -102 212 l-36 53 27 10 c47 18 224 58 297 68
91 11 298 12 354 2z m282 -174 c11 -20 24 -69 28 -108 10 -78 16 -89 103 -192
34 -39 46 -58 28 -42 -91 82 -140 153 -140 206 0 50 -24 124 -52 162 -39 51
-43 64 -14 37 16 -14 37 -42 47 -63z m-981 -156 c0 -53 68 -150 133 -190 18
-11 95 -40 172 -66 77 -25 158 -57 181 -70 50 -29 135 -99 147 -121 5 -9 -15
4 -45 28 -84 69 -151 102 -304 153 -161 53 -221 92 -265 170 -30 55 -50 133
-30 121 6 -4 11 -15 11 -25z m1180 -96 c86 -109 89 -114 51 -80 -39 35 -131
153 -131 168 0 14 5 9 80 -88z m62 26 l31 -46 -29 27 c-35 32 -80 103 -50 79
10 -8 32 -35 48 -60z m-791 -367 c39 -21 100 -66 137 -101 45 -44 51 -51 18
-23 -28 22 -93 68 -145 101 -108 67 -112 76 -10 23z m-1456 -251 c-20 -49 -65
-186 -65 -199 0 -22 -20 -6 -31 24 -14 36 34 170 65 182 32 13 39 12 31 -7z
m3275 -139 c19 -8 72 -36 116 -61 73 -42 84 -52 105 -97 12 -28 24 -54 26 -57
8 -13 -29 -39 -55 -39 -15 0 -40 -9 -57 -20 -36 -24 -45 -25 -45 -5 0 26 -40
96 -58 102 -9 4 -39 22 -66 40 -26 18 -52 33 -55 33 -4 0 -15 26 -24 58 -9 31
-19 65 -22 74 -7 16 -4 17 47 2 29 -9 69 -23 88 -30z m-1470 -498 c266 -122
267 -123 177 -200 -76 -65 -84 -89 -54 -157 13 -30 30 -59 38 -66 42 -35 394
-43 470 -11 19 9 58 31 85 50 27 20 66 41 87 48 24 7 45 23 57 42 22 37 44
149 36 182 -7 28 -8 27 154 70 96 25 298 66 327 66 14 0 15 -13 10 -102 -7
-117 -32 -267 -56 -347 l-16 -54 -86 -3 c-160 -5 -260 -32 -326 -88 -35 -30
-73 -117 -73 -169 l0 -32 -62 0 c-56 -1 -74 -6 -167 -55 l-103 -55 6 -56 5
-57 -107 -31 c-184 -53 -210 -57 -265 -31 -32 15 -51 19 -60 12 -18 -14 -115
-44 -125 -38 -5 3 -21 40 -38 82 -16 42 -38 82 -49 89 -11 7 -47 16 -80 19
-74 8 -122 -16 -132 -64 -3 -17 -13 -35 -22 -39 -56 -30 -247 -93 -306 -101
-38 -6 -91 -15 -117 -22 -63 -16 -87 -3 -125 64 -17 29 -38 60 -47 67 -9 7
-16 24 -16 38 l0 24 168 -7 168 -7 73 79 c96 104 100 113 71 167 -41 75 -66
94 -180 134 l-107 37 42 52 c44 54 62 116 50 166 -11 44 16 88 70 117 l50 27
0 81 c0 95 2 98 105 137 94 36 128 44 190 45 49 1 78 -10 280 -103z m1106 92
c-11 -6 -61 -24 -112 -39 -110 -33 -166 -60 -186 -91 -8 -13 -27 -56 -43 -96
-47 -124 -123 -180 -258 -187 l-72 -4 78 15 c143 27 205 79 245 202 31 96 72
132 189 167 48 15 99 30 113 35 14 5 34 9 45 9 20 0 20 0 1 -11z m-540 -320
c-11 -6 -51 -12 -90 -14 l-71 -3 73 9 c40 4 76 11 79 14 4 3 11 6 17 6 6 0 2
-6 -8 -12z m-1834 -8 c20 -6 56 -26 79 -46 48 -40 62 -39 155 2 30 13 54 19
54 13 0 -14 -109 -61 -146 -62 -31 -1 -48 8 -107 55 -20 16 -45 23 -93 26 -42
3 -61 8 -53 13 19 12 66 11 111 -1z m-95 -56 c83 -7 143 -38 167 -88 18 -37
20 -38 59 -32 22 4 95 24 161 46 66 22 122 38 123 36 7 -7 -116 -56 -201 -80
-125 -37 -137 -35 -161 17 -33 69 -66 79 -279 87 -108 3 -189 10 -201 17 -16
9 12 11 125 7 80 -3 173 -7 207 -10z m-84 -121 c111 -7 121 -13 138 -76 6 -23
19 -57 30 -76 13 -23 23 -69 31 -142 6 -60 9 -111 7 -113 -5 -5 -148 19 -153
25 -2 2 -11 19 -20 36 -48 94 -116 76 -193 -51 -34 -54 -37 -57 -50 -40 -42
58 -163 327 -163 363 0 5 21 -2 48 -15 82 -40 132 -27 132 35 0 11 5 32 10 47
10 24 14 26 48 20 20 -3 81 -9 135 -13z m664 -139 c209 -78 226 -86 247 -131
21 -44 21 -43 -18 -43 -19 0 -46 -4 -59 -9 -19 -8 -41 -3 -98 20 -72 29 -343
121 -444 150 l-49 15 114 31 c63 17 118 32 122 32 3 1 87 -29 185 -65z m2079
33 c8 -8 -44 -135 -97 -236 -76 -145 -61 -137 -165 -92 -49 21 -109 45 -133
52 l-43 13 5 52 c5 51 43 140 69 161 23 20 111 43 193 52 78 9 161 8 171 -2z
m-2339 -108 c104 -34 230 -78 280 -97 l93 -36 -7 -71 c-3 -38 -7 -72 -9 -74
-2 -2 -102 1 -221 7 -120 6 -236 10 -258 9 l-40 -2 -11 135 c-6 74 -15 147
-19 163 -4 15 -5 27 -1 27 3 0 90 -28 193 -61z m-415 -116 c9 -10 23 -32 32
-50 14 -29 22 -32 90 -43 89 -15 96 -19 100 -56 l4 -29 111 3 c102 4 111 2
111 -15 0 -19 2 -23 67 -131 50 -82 86 -102 148 -82 19 6 70 15 113 19 53 6
114 22 188 50 169 65 174 67 174 95 0 14 11 33 26 45 21 16 35 19 77 14 29 -3
59 -9 68 -14 15 -7 76 -156 68 -163 -2 -2 -53 -23 -114 -46 -88 -35 -118 -51
-150 -85 -22 -24 -54 -50 -71 -58 -42 -22 -141 -37 -255 -39 -89 -2 -98 0
-175 34 -116 53 -154 59 -322 52 l-147 -7 -58 53 c-31 28 -57 56 -57 60 0 5
17 11 39 15 76 13 71 80 -14 173 -29 33 -44 40 -119 56 l-85 19 22 40 c28 51
80 107 99 107 8 0 22 -8 30 -17z m2354 -79 c90 -30 278 -116 288 -132 16 -26
-53 -21 -280 18 -131 23 -256 44 -276 47 -21 3 -38 8 -38 12 0 3 25 19 55 36
46 24 82 34 161 44 7 0 47 -11 90 -25z m-2511 -74 c102 -11 165 -28 165 -45 0
-30 -26 -35 -179 -35 -86 -1 -190 -5 -231 -10 -41 -4 -76 -7 -77 -6 -1 1 -5
25 -9 54 l-7 52 124 0 c68 0 165 -5 214 -10z m130 -130 c4 -11 17 -33 30 -49
l25 -28 -43 -6 c-78 -11 -379 4 -412 21 -39 19 -65 42 -65 58 0 16 44 20 277
22 174 2 182 1 188 -18z m2013 -43 c6 -24 19 -51 29 -59 12 -11 70 -24 163
-38 80 -12 146 -23 147 -24 5 -4 -144 -121 -217 -170 -90 -61 -298 -168 -310
-161 -4 3 -13 24 -19 47 -14 49 -26 67 -60 91 l-24 16 25 10 c39 15 68 51 68
84 0 20 -16 48 -55 95 -30 37 -55 70 -55 74 0 4 10 8 23 9 12 0 74 15 137 33
63 19 120 34 126 35 7 0 17 -18 22 -42z m-392 -14 c26 -6 131 -110 121 -120
-25 -24 -469 -72 -543 -59 -72 14 -40 36 170 116 87 33 166 65 175 70 9 6 25
7 36 4 11 -3 30 -8 41 -11z m165 -212 c-26 -36 -25 -36 -291 -50 -288 -16
-285 -16 -309 15 -12 15 -21 32 -21 38 0 8 50 11 163 12 161 1 314 20 396 49
33 12 38 11 60 -10 l24 -23 -22 -31z m-1119 -78 c138 -46 147 -48 260 -48 102
0 113 -2 85 -12 -17 -6 -67 -12 -111 -12 -68 -1 -97 5 -212 44 -73 24 -161 49
-195 54 -78 13 -87 21 -22 21 34 0 99 -16 195 -47z m423 -109 c-53 -20 -171
-29 -215 -16 -30 9 -23 10 60 12 52 1 109 6 125 10 52 13 72 9 30 -6z m8 -246
c140 -50 178 -68 144 -68 -10 0 -28 -7 -42 -16 -23 -15 -30 -12 -175 58 -143
70 -176 97 -103 83 18 -3 97 -29 176 -57z m-226 21 c26 -11 101 -45 166 -76
113 -54 118 -58 112 -82 -4 -14 -8 -28 -11 -30 -6 -6 -438 89 -447 98 -5 5 -6
14 -3 19 6 9 124 92 131 92 2 0 25 -9 52 -21z"/>
<path d="M2665 3415 c19 -89 76 -170 145 -205 45 -23 261 -92 267 -86 6 6 -39
26 -176 76 -123 46 -157 75 -207 175 -21 40 -33 57 -29 40z"/>
<path d="M2780 3335 c-1 -38 76 -91 187 -129 160 -54 200 -89 356 -306 17 -24
17 -24 1 10 -43 91 -152 218 -228 267 -22 14 -78 38 -124 54 -94 32 -166 70
-181 97 -6 9 -11 12 -11 7z"/>
<path d="M3519 2616 c39 -40 145 -98 210 -116 69 -18 57 -6 -30 29 -44 18
-111 53 -147 78 -67 44 -67 44 -33 9z"/>
<path d="M4153 2624 c3 -3 44 -19 91 -35 90 -30 143 -59 214 -116 50 -40 56
-31 10 14 -48 46 -144 101 -217 123 -61 19 -111 26 -98 14z"/>
<path d="M3946 2498 c-13 -29 -26 -61 -30 -71 -3 -9 -13 -20 -22 -24 -24 -9
-115 23 -213 74 -72 38 -82 41 -62 20 49 -53 240 -135 282 -122 22 7 60 82 74
143 10 48 -3 39 -29 -20z"/>
<path d="M4690 2385 c0 -2 17 -13 38 -24 40 -21 76 -53 111 -97 32 -41 38 -20
6 26 -30 43 -107 100 -137 100 -10 0 -18 -2 -18 -5z"/>
<path d="M4766 2381 c43 -40 123 -99 116 -84 -19 35 -93 93 -118 93 -5 0 -4
-4 2 -9z"/>
<path d="M2834 1971 c-40 -18 -61 -37 -51 -47 2 -2 24 5 48 16 80 36 133 28
261 -39 120 -62 206 -95 235 -89 10 2 -16 16 -57 31 -41 15 -111 48 -155 73
-137 79 -201 91 -281 55z"/>
<path d="M2960 1907 c0 -7 247 -127 260 -127 29 0 -16 32 -112 80 -83 42 -148
62 -148 47z"/>
<path d="M4370 1836 c-97 -27 -126 -53 -155 -136 -25 -74 -37 -91 -90 -127
l-50 -35 35 6 c49 9 106 68 126 130 32 99 50 113 197 151 l92 23 -55 0 c-30 0
-75 -5 -100 -12z"/>
<path d="M3158 1239 c-42 -16 -34 -40 30 -101 l58 -55 54 10 c148 27 154 29
173 71 32 67 20 73 -168 81 -74 3 -130 1 -147 -6z m286 -30 c4 -3 2 -18 -3
-32 -8 -21 -20 -27 -68 -36 -32 -6 -72 -15 -89 -20 -28 -7 -35 -4 -78 36 -25
25 -46 49 -46 55 0 10 274 8 284 -3z"/>
<path d="M2622 188 c4 -12 134 -68 158 -67 15 1 -137 78 -153 79 -5 0 -7 -5
-5 -12z"/>
<path d="M1010 2675 c-127 -81 -140 -92 -140 -125 0 -47 49 -56 197 -36 65 9
136 16 156 16 22 0 40 6 43 13 8 22 -33 119 -65 155 -46 49 -86 45 -191 -23z
m170 20 c9 -11 9 -15 1 -15 -7 0 -42 -28 -80 -62 -37 -35 -77 -71 -89 -80 -22
-18 -76 -24 -106 -12 -35 13 -9 63 40 78 11 3 52 29 90 56 73 52 120 64 144
35z"/>
<path d="M822 2403 c-19 -10 -39 -31 -48 -53 -10 -22 -30 -44 -52 -55 -64 -36
-73 -58 -79 -192 -7 -139 -21 -114 139 -246 59 -49 109 -95 112 -102 4 -11 29
-12 118 -9 164 7 153 2 167 86 7 40 15 120 18 178 l6 105 -47 61 c-25 34 -56
88 -68 120 -12 33 -28 68 -35 79 -28 42 -168 59 -231 28z m191 -22 c18 -7 32
-28 52 -81 15 -39 42 -91 60 -115 41 -53 58 -85 51 -93 -3 -3 -16 4 -29 16
-31 29 -58 28 -109 -7 -24 -16 -55 -32 -70 -35 -22 -5 -29 -1 -45 27 -11 17
-35 57 -53 89 -37 62 -61 78 -122 78 l-41 0 34 23 c18 12 38 32 44 44 18 36
36 53 69 63 34 10 121 5 159 -9z m125 -303 c23 -13 42 -30 42 -38 0 -19 -31
-254 -33 -256 -1 -1 -49 -4 -107 -6 l-106 -5 13 71 c7 39 12 99 13 132 0 59 1
62 28 67 15 3 43 17 62 30 19 14 37 26 40 26 3 1 24 -9 48 -21z"/>
<path d="M996 2310 c12 -45 62 -146 63 -125 0 11 -16 49 -35 85 -19 36 -32 54
-28 40z"/>
<path d="M976 2263 c17 -42 34 -64 34 -45 0 17 -33 82 -41 82 -5 0 -1 -17 7
-37z"/>
<path d="M1098 1980 c-4 -14 -10 -53 -13 -85 l-5 -60 15 45 c9 25 14 63 13 85
-3 35 -4 37 -10 15z"/>
<path d="M5166 2382 c-7 -12 20 -206 33 -230 23 -44 103 -15 202 71 l44 38
-20 37 c-18 33 -29 40 -100 64 -79 27 -149 36 -159 20z m115 -34 c41 -12 49
-22 24 -32 -20 -7 -75 -95 -75 -119 0 -36 -19 -6 -25 41 -3 26 -8 64 -10 85
-5 35 -4 37 21 37 15 0 44 -5 65 -12z"/>
<path d="M88 2271 c-28 -37 -80 -149 -76 -168 2 -11 64 -39 198 -90 107 -40
198 -73 201 -73 11 0 68 138 75 179 8 52 -26 114 -81 146 -35 20 -56 24 -169
27 -126 3 -129 3 -148 -21z m313 -25 c14 -11 33 -31 43 -44 l19 -24 -63 7
c-44 5 -69 3 -86 -6 -20 -10 -27 -10 -41 3 -10 9 -49 32 -88 51 l-70 36 130
-2 c111 -2 134 -5 156 -21z m-211 -37 c41 -23 76 -42 78 -44 2 -2 -4 -17 -12
-34 -9 -16 -16 -46 -16 -65 l0 -35 -87 30 c-109 36 -117 41 -109 67 6 19 9 19
51 6 56 -16 57 -11 4 16 -56 29 -43 35 20 10 78 -30 95 -22 24 11 -35 16 -63
32 -63 35 0 11 21 44 28 44 4 0 41 -19 82 -41z"/>
<path d="M5310 2049 c-25 -4 -75 -8 -112 -8 -36 -1 -74 -4 -83 -7 -19 -8 -55
-76 -80 -153 -17 -52 -17 -54 2 -80 28 -37 79 -47 164 -33 38 7 114 12 169 12
109 0 125 8 109 59 -5 14 -16 51 -24 81 -20 68 -65 140 -85 139 -8 -1 -35 -5
-60 -10z m-5 -53 c-28 -19 -63 -48 -79 -65 -16 -16 -32 -28 -36 -26 -5 3 -32
0 -61 -5 -29 -6 -54 -8 -57 -6 -2 3 6 30 19 60 l23 56 65 1 c36 0 84 4 106 8
69 15 71 12 20 -23z m-129 -161 c-10 -45 -11 -45 -53 -45 -45 0 -73 19 -73 50
0 13 12 20 48 28 89 18 90 18 78 -33z"/>
<path d="M193 1843 c-23 -12 -33 -24 -33 -40 0 -33 62 -153 79 -153 7 0 33 16
57 35 33 27 44 44 49 75 8 46 -1 62 -48 85 -38 19 -63 18 -104 -2z"/>
<path d="M4819 1785 c-56 -29 -154 -133 -162 -171 -8 -43 42 -332 67 -383 13
-29 62 -51 110 -51 29 0 49 12 110 65 87 76 178 175 203 222 17 33 17 34 -5
76 -12 23 -58 82 -102 132 -44 49 -80 93 -80 97 0 11 -56 38 -77 38 -10 -1
-39 -12 -64 -25z m51 -12 c0 -5 -7 -33 -15 -63 -8 -30 -22 -113 -31 -184 -16
-124 -18 -131 -50 -164 -19 -19 -34 -39 -34 -44 0 -4 -4 -8 -8 -8 -12 0 -42
141 -49 230 l-6 76 63 72 c34 40 69 76 78 82 20 11 52 13 52 3z m10 -471 c12
-31 19 -61 16 -69 -9 -23 -53 -34 -98 -24 -78 18 -77 62 1 144 33 34 37 36 48
20 7 -9 22 -41 33 -71z"/>
<path d="M4768 1654 c-5 -4 -8 -48 -8 -98 1 -66 3 -86 11 -74 11 20 8 184 -3
172z"/>
<path d="M4721 1563 c1 -77 17 -100 18 -26 1 34 -3 65 -9 68 -6 4 -10 -12 -9
-42z"/>
<path d="M585 1654 c-115 -34 -134 -44 -159 -87 -36 -62 -39 -93 -12 -120 37
-36 62 -78 81 -137 9 -30 23 -61 29 -67 13 -14 381 -63 487 -65 92 -2 99 5 99
101 0 42 -6 86 -13 98 -10 18 -301 244 -362 280 -27 16 -88 15 -150 -3z m128
-15 c12 -7 93 -64 180 -128 l159 -116 -32 -9 c-32 -9 -125 7 -315 57 -59 16
-104 21 -171 19 -116 -4 -128 6 -94 78 25 53 43 64 155 95 63 17 91 18 118 4z
m70 -237 c82 -18 152 -34 157 -37 9 -6 43 -145 37 -152 -5 -4 -384 34 -424 43
-14 3 -23 12 -23 24 0 15 -31 92 -58 142 -5 9 53 16 113 13 28 -1 117 -16 198
-33z"/>
<path d="M640 1383 c0 -5 44 -20 98 -33 53 -14 103 -26 111 -28 7 -2 10 1 7 7
-14 22 -216 72 -216 54z"/>
<path d="M673 1339 c20 -12 126 -49 139 -49 28 0 -12 22 -71 40 -75 22 -95 25
-68 9z"/>
<path d="M5365 1533 c-55 -59 -58 -66 -42 -77 9 -7 17 -23 17 -35 0 -12 16
-38 35 -58 34 -35 35 -35 60 -19 38 25 59 74 59 138 1 59 -25 111 -55 114 -8
1 -41 -27 -74 -63z"/>
<path d="M5130 1096 c-107 -37 -194 -78 -228 -110 -52 -47 -86 -152 -58 -176
25 -20 134 -6 276 35 211 61 230 73 230 150 0 33 -34 115 -53 127 -23 14 -72
7 -167 -26z m-128 -178 c-6 -7 -13 -30 -17 -50 -6 -32 -12 -38 -39 -44 -18 -3
-46 -4 -62 -2 -32 3 -33 16 -9 76 14 31 16 32 76 32 48 0 59 -3 51 -12z"/>
<path d="M954 855 c-22 -34 -29 -99 -14 -135 28 -68 90 -86 183 -53 57 21 60
38 15 89 -34 39 -143 124 -159 124 -5 0 -16 -11 -25 -25z m80 -34 c28 -22 69
-55 91 -74 l40 -35 -40 -17 c-22 -9 -57 -19 -77 -22 -31 -5 -41 -1 -63 22 -14
16 -28 39 -31 52 -6 23 13 113 24 113 3 0 28 -18 56 -39z"/>
<path d="M4465 764 c-11 -2 -69 -14 -129 -27 l-109 -22 -25 -53 c-13 -29 -22
-59 -19 -65 6 -15 161 -47 257 -54 53 -4 76 0 125 20 68 28 72 36 60 144 l-7
63 -66 -1 c-37 -1 -76 -3 -87 -5z m46 -66 c-16 -24 -35 -62 -42 -85 -14 -50
-10 -49 -155 -27 -99 16 -104 18 -98 38 16 53 30 71 58 74 15 2 65 12 110 22
44 10 98 19 118 19 l37 1 -28 -42z"/>
<path d="M4380 683 c-88 -14 -131 -26 -123 -34 8 -8 110 3 156 17 16 5 15 26
-1 23 -4 -1 -18 -4 -32 -6z"/>
<path d="M4290 630 c-19 -12 42 -12 80 0 21 7 17 8 -20 9 -25 0 -52 -4 -60 -9z"/>
<path d="M1675 533 c-39 -54 -43 -81 -17 -111 32 -37 223 -182 247 -188 32 -8
83 29 101 73 16 38 17 131 1 151 -6 8 -29 23 -51 34 -49 25 -216 88 -233 88
-7 0 -28 -21 -48 -47z m164 -13 c153 -60 149 -56 106 -86 l-36 -24 -28 19
c-15 11 -61 36 -102 57 -41 20 -76 38 -78 40 -5 5 19 34 28 34 4 0 53 -18 110
-40z m-44 -66 c107 -53 105 -51 97 -123 l-7 -62 -108 87 c-60 47 -111 93 -114
100 -8 22 17 45 41 38 12 -3 53 -21 91 -40z"/>
<path d="M3741 426 c-24 -14 -50 -51 -51 -74 0 -21 68 -44 150 -52 90 -8 110
-1 110 43 0 43 -6 49 -67 75 -58 25 -107 28 -142 8z m130 -27 c39 -17 49 -26
49 -45 0 -22 -4 -24 -56 -24 -69 0 -144 18 -144 35 0 20 49 55 77 55 13 0 47
-10 74 -21z"/>
<path d="M3438 270 c-34 -26 -55 -85 -38 -105 17 -20 43 -19 88 4 52 27 74 54
70 88 -3 26 -7 28 -49 31 -34 2 -52 -2 -71 -18z"/>
</g>
</svg>
